<?xml version="1.0" encoding="UTF-8"?>
<svg id="Lager_1" xmlns="http://www.w3.org/2000/svg" viewBox="0 0 100 100">
    <defs>
        <style>
            .cls-1 {
                fill: #efefef;
                stroke-width: 0px;
            }
        </style>
    </defs>
    <path class="cls-1"
        d="m14.11,77.65h2.72v1.96c.64-.79,1.37-1.39,2.18-1.79.81-.4,1.65-.6,2.52-.6,1.1,0,1.96.18,2.61.55.64.37,1.12.93,1.42,1.69.6-.74,1.35-1.29,2.23-1.67.88-.38,1.76-.57,2.65-.57,1.66,0,2.86.42,3.6,1.26.74.84,1.11,2.08,1.11,3.73v9.04h-2.78v-8.67c0-1.12-.21-1.9-.62-2.37-.42-.46-1.12-.69-2.13-.69-1.44,0-2.61.62-3.52,1.87.04.28.06.75.06,1.39v8.48h-2.78v-8.67c0-1.12-.19-1.9-.57-2.37-.38-.46-1.06-.69-2.04-.69-1.44,0-2.72.81-3.85,2.44v9.3h-2.81v-13.61Z" />
    <path class="cls-1"
        d="m40.25,89.79c-1.43-1.26-2.14-3.03-2.14-5.31s.64-4,1.91-5.3c1.28-1.3,3.09-1.96,5.46-1.96,1.57,0,2.9.3,4,.89,1.1.6,1.92,1.42,2.48,2.47.56,1.05.84,2.24.84,3.59v1.42h-11.96c.09,1.29.64,2.24,1.63,2.88s2.34.95,4.04.95c.87,0,1.75-.08,2.64-.24.89-.16,1.67-.37,2.35-.64v2.3c-.6.25-1.4.45-2.4.61s-1.97.24-2.93.24c-2.51,0-4.48-.63-5.91-1.89Zm9.85-6.22c-.04-1.28-.46-2.28-1.26-2.99-.8-.71-1.94-1.06-3.42-1.06s-2.55.37-3.34,1.11c-.79.74-1.21,1.72-1.25,2.95h9.27Z" />
    <path class="cls-1"
        d="m55.92,77.65h2.78v1.96c.64-.81,1.43-1.41,2.37-1.8s1.91-.58,2.93-.58c1.81,0,3.17.48,4.05,1.45s1.33,2.26,1.33,3.88v8.7h-2.86v-8.42c0-2.21-1.06-3.32-3.17-3.32-.91,0-1.75.21-2.54.64-.78.43-1.46,1.07-2.03,1.94v9.16h-2.86v-13.61Z" />
    <path class="cls-1"
        d="m74.19,90.2c-.94-.98-1.4-2.3-1.4-3.94v-8.62h2.86v8.5c0,2.17,1.09,3.26,3.26,3.26,1.91,0,3.4-.86,4.48-2.58v-9.18h2.86v13.61h-2.78v-1.93c-.64.81-1.4,1.41-2.28,1.79-.88.38-1.83.57-2.85.57-1.83,0-3.22-.49-4.15-1.47Z" />
    <rect class="cls-1" x="13.64" y="9.85" width="60" height="9" rx="4.5" ry="4.5" />
    <rect class="cls-1" x="13.64" y="31.76" width="75" height="9" rx="4.5" ry="4.5" />
    <rect class="cls-1" x="13.64" y="54.2" width="65" height="9" rx="4.5" ry="4.5" />
</svg>