<?xml version="1.0" encoding="UTF-8"?>
<svg id="Lager_1" xmlns="http://www.w3.org/2000/svg" viewBox="0 0 25 25">
    <defs>
        <style>
            .cls-1 {
                fill: #6bb239;
                stroke-width: 0px;
            }
        </style>
    </defs>
    <path class="cls-1" d="m16.37,16.37H5.83v-3.01h10.54v3.01Zm-9.66-.89h8.77v-1.24H6.71v1.24Z" />
    <path class="cls-1"
        d="m17.75,12.6h-.89c0-1.19-.16-1.47-.23-1.54-.13-.01-.24,0-.38.03-.8.13-2.3.36-3.07-.46-.32-.34-.47-.81-.43-1.4-1.3-.11-1.99-.99-2.09-1.92-.14-1.23.71-2.64,2.37-2.88l.13.88c-1.17.17-1.7,1.11-1.61,1.9.09.78.71,1.2,1.68,1.13l.47.54c-.12.54-.07.92.13,1.14.45.48,1.69.29,2.29.19.19-.03.33-.05.42-.05.28,0,.52.08.71.26.35.34.5.97.5,2.18h0Z" />
    <path class="cls-1"
        d="m19.17,12.6h-.89c0-.85-.14-1.99-.81-2.58-.41-.37-1.01-.52-1.79-.43l-.44-.64c.39-.77.46-1.42.19-1.85-.2-.32-.59-.5-1.08-.49l-.02-.89c.8.02,1.48.32,1.85.91.34.55.38,1.26.12,2.06.7.04,1.29.26,1.75.68.73.66,1.1,1.75,1.1,3.24h.02Z" />
    <rect class="cls-1" x="16.86" y="13.37" width=".89" height="3" />
    <rect class="cls-1" x="18.28" y="13.37" width=".89" height="3" />
</svg>