<?xml version="1.0" encoding="UTF-8"?><svg id="Lager_1" xmlns="http://www.w3.org/2000/svg" viewBox="0 0 1239.1 22.6"><defs><style>.cls-1{fill:#efefef;stroke-width:0px;}</style></defs><path class="cls-1" d="m9.95,19.9c-.6-.1-1.1-.2-1.5-.4v-2.4c.9.4,2,.6,3.2.6.8,0,1.3-.2,1.7-.5s.5-.8.5-1.4v-.5c-.3.3-.7.5-1.1.7-.5.1-1,.2-1.5.2-.9,0-1.7-.2-2.4-.6-.7-.3-1.3-.9-1.6-1.6-.4-.7-.6-1.5-.6-2.4s.2-1.7.6-2.4c.4-.7.9-1.2,1.6-1.6.7-.4,1.5-.6,2.4-.6.6,0,1.1.1,1.6.3s.9.4,1.3.8v-.8h3.4v8c0,1.5-.5,2.7-1.4,3.5-1,.8-2.5,1.2-4.5,1.2-.5,0-1.1,0-1.7-.1Zm3.3-6.7c.3-.2.6-.5.7-.8v-1.4c-.2-.3-.4-.6-.7-.8s-.7-.3-1.1-.3c-.6,0-1,.1-1.3.5-.3.3-.5.7-.5,1.3s.2,1,.5,1.3c.3.3.7.5,1.3.5.4,0,.8-.1,1.1-.3Z"/><path class="cls-1" d="m18.85,7.4h3.4v.9c.3-.3.8-.6,1.4-.8s1.2-.3,1.9-.3v2.8c-.8,0-1.4.1-2,.3s-1,.5-1.2.9v4.7h-3.6l.1-8.5h0Z"/><path class="cls-1" d="m26.15,15.5c-.7-.5-1-1.2-1-2.2s.3-1.7,1-2.2,1.6-.8,2.8-.8c.4,0,.9.1,1.3.1s.8.2,1.1.4v-.2c0-.4-.2-.7-.6-.9s-.9-.3-1.6-.3c-1,0-2,.2-2.8.6v-2.3c.4-.2.9-.3,1.5-.4s1.3-.2,2-.2c1.6,0,2.9.3,3.8.9.9.6,1.3,1.5,1.3,2.7v5.2h-3.4v-.6c-.3.3-.7.5-1.2.7s-1,.3-1.6.3c-1.1-.1-1.9-.3-2.6-.8Zm4.6-1.5c.3-.1.5-.3.6-.5v-.7c-.4-.3-.9-.4-1.5-.4-.3,0-.6.1-.8.2s-.3.4-.3.7.1.5.3.6.4.2.8.2c.4.1.6,0,.9-.1Z"/><path class="cls-1" d="m36.25,7.4h3.4v.8c.4-.4.8-.6,1.3-.8.5-.2,1-.3,1.6-.3,1.2,0,2.1.3,2.7.9s.9,1.5.9,2.6v5.3h-3.6v-4.8c0-.4-.1-.7-.3-.9s-.5-.3-.8-.3c-.7,0-1.2.3-1.6,1v5h-3.6V7.4Z"/><path class="cls-1" d="m49.25,15.6c-.7-.4-1.2-.9-1.6-1.6s-.6-1.5-.6-2.4.2-1.7.6-2.4c.4-.7.9-1.2,1.6-1.6.7-.4,1.5-.6,2.4-.6.5,0,1.1.1,1.5.2s.9.4,1.2.6V2.6h3.5v13.3h-3.4v-.8c-.3.3-.8.6-1.3.8s-1,.3-1.6.3c-.8,0-1.6-.2-2.3-.6Zm4.4-2.4c.3-.2.5-.4.7-.8v-1.4c-.2-.3-.4-.6-.7-.8s-.7-.3-1.1-.3c-.6,0-1,.2-1.3.5s-.5.8-.5,1.3.2,1,.5,1.3.8.5,1.3.5c.4,0,.8-.1,1.1-.3Z"/><path class="cls-1" d="m67.15,15.6c-.8-.4-1.4-.9-1.9-1.6-.4-.7-.7-1.5-.7-2.3,0-.9.2-1.6.7-2.3s1.1-1.2,1.9-1.6c.8-.4,1.8-.6,2.8-.6s2,.2,2.9.6,1.4.9,1.9,1.6.7,1.5.7,2.3c0,.9-.2,1.7-.7,2.3-.4.7-1.1,1.2-1.9,1.6s-1.8.6-2.9.6-1.9-.2-2.8-.6Zm4.2-2.6c.3-.3.5-.8.5-1.3s-.2-1-.5-1.3-.8-.5-1.3-.5-1,.2-1.3.5-.5.7-.5,1.3c0,.5.2,1,.5,1.3s.7.5,1.3.5,1-.2,1.3-.5Z"/><path class="cls-1" d="m76.45,7.4h3.4v.8c.3-.3.8-.6,1.3-.8.5-.2,1-.3,1.6-.3.9,0,1.7.2,2.4.6.7.4,1.2.9,1.6,1.6.4.7.6,1.5.6,2.4s-.2,1.7-.6,2.4-.9,1.2-1.6,1.6-1.5.6-2.4.6c-.5,0-1-.1-1.5-.2s-.9-.4-1.2-.6v4.3h-3.6s0-12.4,0-12.4Zm6.7,5.6c.3-.3.5-.8.5-1.3,0-.6-.2-1-.5-1.3s-.8-.5-1.3-.5c-.4,0-.8.1-1.1.3-.3.2-.6.5-.7.8v1.4c.2.3.4.6.7.8s.7.3,1.1.3c.5,0,1-.2,1.3-.5Z"/><path class="cls-1" d="m89.45,15c-1-.8-1.4-1.9-1.4-3.3s.4-2.5,1.3-3.3,2.1-1.2,3.7-1.2c1,0,1.9.2,2.7.6.7.4,1.3.9,1.7,1.6.4.7.6,1.4.6,2.3v1.1h-6.6c.3.8,1.1,1.1,2.6,1.1.6,0,1.2,0,1.8-.1s1.1-.2,1.5-.4v2.2c-.4.2-1,.3-1.7.4s-1.4.2-2.1.2c-1.8,0-3.1-.4-4.1-1.2Zm5.1-4.3c-.1-.4-.2-.7-.5-.9s-.7-.3-1.1-.3-.8.1-1.1.3c-.3.2-.4.5-.5.9,0,0,3.2,0,3.2,0Z"/><path class="cls-1" d="m99.05,7.4h3.4v.8c.4-.4.8-.6,1.3-.8.5-.2,1-.3,1.6-.3,1.2,0,2.1.3,2.7.9s.9,1.5.9,2.6v5.3h-3.6v-4.8c0-.4-.1-.7-.3-.9-.2-.2-.4-.3-.8-.3-.7,0-1.2.3-1.6,1v5h-3.6V7.4Z"/><path class="cls-1" d="m110.25,7.4h3.6v8.5h-3.6V7.4Zm.5-1.5c-.3-.3-.5-.8-.5-1.3s.2-1,.5-1.3.8-.5,1.3-.5,1,.2,1.3.5.5.8.5,1.3-.2,1-.5,1.3c-.4.4-.8.5-1.3.5-.5.1-1-.1-1.3-.5Z"/><path class="cls-1" d="m115.35,7.4h3.4v.8c.4-.4.8-.6,1.3-.8.5-.2,1-.3,1.6-.3,1.2,0,2.1.3,2.7.9s.9,1.5.9,2.6v5.3h-3.6v-4.8c0-.4-.1-.7-.3-.9-.2-.2-.4-.3-.8-.3-.7,0-1.2.3-1.6,1v5h-3.6V7.4Z"/><path class="cls-1" d="m129.45,19.9c-.6-.1-1.1-.2-1.5-.4v-2.4c.9.4,2,.6,3.2.6.8,0,1.3-.2,1.7-.5s.5-.8.5-1.4v-.5c-.3.3-.7.5-1.2.6-.5.2-1,.2-1.5.2-.9,0-1.7-.2-2.4-.6-.7-.4-1.2-.9-1.6-1.6-.4-.7-.6-1.5-.6-2.4s.2-1.7.6-2.4.9-1.2,1.6-1.6c.7-.4,1.5-.6,2.4-.6.6,0,1.1.1,1.6.3s.9.4,1.3.8v-.8h3.4v8.1c0,1.5-.5,2.7-1.4,3.5-.9.8-2.4,1.2-4.4,1.2-.5,0-1.1,0-1.7-.1Zm3.3-6.7c.3-.2.6-.5.7-.8v-1.4c-.2-.3-.4-.6-.7-.8s-.7-.3-1.1-.3c-.6,0-1,.1-1.3.5-.3.3-.5.7-.5,1.3s.2,1,.5,1.3.8.5,1.3.5c.4,0,.8-.1,1.1-.3Z"/><path class="cls-1" d="m144.55,7.4h1.7v1.2c.4-.5.9-.9,1.4-1.1.5-.3,1-.4,1.6-.4.7,0,1.2.1,1.6.4.4.2.7.6.9,1.1.4-.5.8-.8,1.4-1.1.6-.2,1.1-.3,1.7-.3,1,0,1.8.3,2.2.8s.7,1.3.7,2.3v5.6h-1.7v-5.4c0-.7-.1-1.2-.4-1.5-.3-.3-.7-.4-1.3-.4-.9,0-1.6.4-2.2,1.2v6.1h-1.7v-5.4c0-.7-.1-1.2-.4-1.5-.2-.3-.7-.4-1.3-.4-.9,0-1.7.5-2.4,1.5v5.8h-1.8V7.4h0Z"/><path class="cls-1" d="m160.25,15.4c-.6-.5-.9-1.2-.9-2.1s.3-1.7.9-2.2c.6-.5,1.4-.8,2.6-.8s2.2.2,3,.7v-.4c0-.7-.2-1.2-.6-1.5s-1.1-.5-1.9-.5c-.5,0-1,.1-1.5.1-.5.1-.9.2-1.3.4v-1.5c.4-.2.8-.3,1.4-.4.6-.1,1.1-.2,1.6-.2,1.4,0,2.4.3,3.1.9.7.6,1,1.5,1,2.6v5.4h-1.7v-1c-.4.4-.8.7-1.3.9s-1.1.3-1.8.3c-1.2.1-2-.1-2.6-.7Zm4.4-.9c.5-.2.8-.5,1-.9v-1.1c-.8-.5-1.6-.8-2.6-.8-.7,0-1.2.1-1.5.4-.3.3-.5.7-.5,1.2,0,1,.7,1.6,2,1.6.6-.1,1.2-.2,1.6-.4Z"/><path class="cls-1" d="m169.15,19.3v-1.4c.3.1.7.2,1.1.2s.7-.1,1-.3c.2-.2.4-.5.6-1l.4-1-3.7-8.3h1.9l2.8,6.5,2.6-6.6h1.9l-3.8,9.5c-.4.9-.8,1.5-1.3,1.9s-1.1.6-1.9.6c-.6.1-1.2,0-1.6-.1Z"/><path class="cls-1" d="m187.25,16c-.7-.1-1.2-.3-1.7-.5v-1.5c1.1.5,2.3.8,3.6.8,1.1,0,1.9-.2,2.4-.6.5-.4.8-1,.8-1.7,0-.8-.3-1.3-.8-1.6s-1.4-.5-2.5-.5h-1.5v-1.5h1.4c.9,0,1.6-.2,2.1-.5.5-.4.8-.9.8-1.6s-.2-1.2-.7-1.6-1.1-.5-1.9-.5c-.7,0-1.3.1-1.8.2s-1.1.4-1.6.8v-1.5c1-.6,2.3-.9,3.7-.9s2.4.3,3.2.9c.7.6,1.1,1.5,1.1,2.6,0,.7-.2,1.2-.5,1.7s-.9.9-1.6,1.1c.8.2,1.4.5,1.9,1s.6,1.1.6,1.9c0,1.1-.4,2-1.1,2.7-.8.7-2,1-3.7,1-.8,0-1.5-.1-2.2-.2Z"/><path class="cls-1" d="m198.45,5.5l-2.7,1.9v-1.7l2.9-2.2h1.6v12.4h-1.8V5.5Z"/><path class="cls-1" d="m216.45,19.9c-.6-.1-1.1-.2-1.5-.4v-2.4c.9.4,2,.6,3.2.6.8,0,1.3-.2,1.7-.5s.5-.8.5-1.4v-.5c-.3.3-.7.5-1.2.6-.5.2-1,.2-1.5.2-.9,0-1.7-.2-2.4-.6-.7-.4-1.2-.9-1.6-1.6-.4-.7-.6-1.5-.6-2.4s.2-1.7.6-2.4c.4-.7.9-1.2,1.6-1.6.7-.4,1.5-.6,2.4-.6.6,0,1.1.1,1.6.3s.9.4,1.3.8v-.8h3.4v8.1c0,1.5-.5,2.7-1.4,3.5-.9.8-2.4,1.2-4.4,1.2-.5,0-1.1,0-1.7-.1Zm3.2-6.7c.3-.2.6-.5.7-.8v-1.4c-.1-.3-.4-.6-.7-.8s-.7-.3-1.1-.3c-.6,0-1,.1-1.3.5-.3.3-.5.7-.5,1.3s.2,1,.5,1.3.8.5,1.3.5.8-.1,1.1-.3Z"/><path class="cls-1" d="m225.35,7.4h3.4v.9c.3-.3.8-.6,1.4-.8.6-.2,1.2-.3,1.9-.3v2.8c-.8,0-1.4.1-2,.3s-1,.5-1.2.9v4.7h-3.6l.1-8.5h0Z"/><path class="cls-1" d="m232.65,15.5c-.7-.5-1-1.2-1-2.2s.3-1.7,1-2.2,1.6-.8,2.8-.8c.4,0,.9.1,1.3.1s.8.2,1.1.4v-.2c0-.4-.2-.7-.6-.9s-.9-.3-1.6-.3c-1,0-2,.2-2.8.6v-2.3c.4-.2.9-.3,1.5-.4s1.3-.2,2-.2c1.6,0,2.9.3,3.8.9.9.6,1.3,1.5,1.3,2.7v5.2h-3.4v-.6c-.3.3-.7.5-1.2.7s-1.1.3-1.6.3c-1.1-.1-2-.3-2.6-.8Zm4.6-1.5c.3-.1.5-.3.6-.5v-.7c-.4-.3-.9-.4-1.5-.4-.3,0-.6.1-.8.2s-.3.4-.3.6c0,.3.1.5.3.6s.4.2.8.2c.3.2.6.1.9,0Z"/><path class="cls-1" d="m242.75,7.4h3.4v.8c.4-.4.8-.6,1.3-.8.5-.2,1-.3,1.6-.3,1.2,0,2.1.3,2.7.9s.9,1.5.9,2.6v5.3h-3.6v-4.8c0-.4-.1-.7-.3-.9s-.4-.3-.8-.3c-.7,0-1.2.3-1.6,1v5h-3.6V7.4h0Z"/><path class="cls-1" d="m255.65,15.6c-.7-.4-1.2-.9-1.6-1.6s-.6-1.5-.6-2.4.2-1.7.6-2.4.9-1.2,1.6-1.6c.7-.4,1.5-.6,2.4-.6.5,0,1.1.1,1.5.2s.9.4,1.2.6V2.6h3.6v13.3h-3.4v-.8c-.4.3-.8.6-1.3.8s-1,.3-1.6.3c-.9,0-1.7-.2-2.4-.6Zm4.5-2.4c.3-.2.6-.4.7-.8v-1.4c-.1-.3-.4-.6-.7-.8s-.7-.3-1.1-.3c-.6,0-1,.2-1.3.5s-.5.8-.5,1.3.2,1,.5,1.3.8.5,1.3.5c.4,0,.8-.1,1.1-.3Z"/><path class="cls-1" d="m273.65,15.6c-.8-.4-1.4-.9-1.9-1.6-.4-.7-.7-1.5-.7-2.3,0-.9.2-1.6.7-2.3s1.1-1.2,1.9-1.6c.8-.4,1.8-.6,2.9-.6s2,.2,2.9.6c.8.4,1.4.9,1.9,1.6s.7,1.5.7,2.3c0,.9-.2,1.7-.7,2.3-.4.7-1.1,1.2-1.9,1.6s-1.8.6-2.9.6-2.1-.2-2.9-.6Zm4.1-2.6c.3-.3.5-.8.5-1.3s-.2-1-.5-1.3-.8-.5-1.3-.5-1,.2-1.3.5-.5.7-.5,1.3c0,.5.2,1,.5,1.3s.7.5,1.3.5,1-.2,1.3-.5Z"/><path class="cls-1" d="m282.95,7.4h3.4v.8c.4-.3.8-.6,1.3-.8.5-.2,1-.3,1.6-.3.9,0,1.7.2,2.4.6.7.4,1.2.9,1.6,1.6.4.7.6,1.5.6,2.4s-.2,1.7-.6,2.4-.9,1.2-1.6,1.6-1.5.6-2.4.6c-.5,0-1-.1-1.5-.2s-.9-.4-1.2-.6v4.3h-3.5V7.4h-.1Zm6.7,5.6c.3-.3.5-.8.5-1.3,0-.6-.2-1-.5-1.3s-.8-.5-1.3-.5c-.4,0-.8.1-1.1.3-.3.2-.5.5-.7.8v1.4c.1.3.4.6.7.8s.7.3,1.1.3c.5,0,.9-.2,1.3-.5Z"/><path class="cls-1" d="m295.95,15c-1-.8-1.4-1.9-1.4-3.3s.4-2.5,1.3-3.3,2.1-1.2,3.7-1.2c1,0,1.9.2,2.7.6.7.4,1.3.9,1.7,1.6.4.7.6,1.4.6,2.3v1.1h-6.6c.3.8,1.1,1.1,2.6,1.1.6,0,1.1,0,1.8-.1s1.1-.2,1.5-.4v2.2c-.5.2-1,.3-1.7.4s-1.4.2-2.1.2c-1.8,0-3.2-.4-4.1-1.2Zm5.1-4.3c-.1-.4-.2-.7-.5-.9s-.6-.3-1.1-.3-.8.1-1.1.3-.4.5-.5.9h3.2Z"/><path class="cls-1" d="m305.45,7.4h3.4v.8c.4-.4.8-.6,1.3-.8.5-.2,1-.3,1.6-.3,1.2,0,2.1.3,2.7.9s.9,1.5.9,2.6v5.3h-3.6v-4.8c0-.4-.1-.7-.3-.9-.2-.2-.5-.3-.8-.3-.7,0-1.3.3-1.6,1v5h-3.5l-.1-8.5h0Z"/><path class="cls-1" d="m316.75,7.4h3.5v8.5h-3.5V7.4Zm.4-1.5c-.4-.3-.5-.8-.5-1.3s.2-1,.5-1.3c.4-.4.8-.5,1.3-.5s1,.2,1.3.5.5.8.5,1.3-.2,1-.5,1.3c-.4.4-.8.5-1.3.5-.5.1-.9-.1-1.3-.5Z"/><path class="cls-1" d="m321.75,7.4h3.4v.8c.4-.4.8-.6,1.3-.8.5-.2,1-.3,1.6-.3,1.2,0,2.1.3,2.7.9s.9,1.5.9,2.6v5.3h-3.6v-4.8c0-.4-.1-.7-.3-.9-.2-.2-.5-.3-.8-.3-.7,0-1.2.3-1.6,1v5h-3.5l-.1-8.5h0Z"/><path class="cls-1" d="m335.95,19.9c-.6-.1-1.1-.2-1.5-.4v-2.4c.9.4,2,.6,3.2.6.8,0,1.3-.2,1.7-.5.4-.3.5-.8.5-1.4v-.5c-.3.3-.7.5-1.2.6-.5.2-1,.2-1.5.2-.9,0-1.7-.2-2.4-.6-.7-.4-1.2-.9-1.6-1.6s-.6-1.5-.6-2.4.2-1.7.6-2.4.9-1.2,1.6-1.6c.7-.4,1.5-.6,2.4-.6.6,0,1.1.1,1.6.3s.9.4,1.3.8v-.8h3.4v8.1c0,1.5-.5,2.7-1.4,3.5s-2.4,1.2-4.4,1.2c-.6,0-1.1,0-1.7-.1Zm3.2-6.7c.3-.2.5-.5.7-.8v-1.4c-.1-.3-.4-.6-.7-.8s-.7-.3-1.1-.3c-.6,0-1,.1-1.3.5-.3.3-.5.7-.5,1.3s.2,1,.5,1.3.8.5,1.3.5c.4,0,.8-.1,1.1-.3Z"/><path class="cls-1" d="m350.95,7.4h1.7v1.2c.4-.5.9-.9,1.4-1.1.5-.3,1-.4,1.6-.4.7,0,1.2.1,1.6.4s.7.6.9,1.1c.4-.5.8-.8,1.4-1.1.5-.2,1.1-.3,1.7-.3,1,0,1.8.3,2.2.8s.7,1.3.7,2.3v5.6h-1.7v-5.4c0-.7-.1-1.2-.4-1.5s-.7-.4-1.3-.4c-.9,0-1.6.4-2.2,1.2v6.1h-1.7v-5.4c0-.7-.1-1.2-.4-1.5-.2-.3-.7-.4-1.3-.4-.9,0-1.7.5-2.4,1.5v5.8h-1.8V7.4h0Z"/><path class="cls-1" d="m366.65,15.4c-.6-.5-.9-1.2-.9-2.1s.3-1.7.9-2.2,1.5-.8,2.5-.8c1.2,0,2.2.2,3,.7v-.4c0-.7-.2-1.2-.6-1.5s-1-.5-1.9-.5c-.5,0-1,.1-1.5.1s-.9.2-1.3.4v-1.5c.4-.2.8-.3,1.4-.4s1.1-.2,1.6-.2c1.4,0,2.5.3,3.1.9s1,1.5,1,2.6v5.4h-1.7v-1c-.4.4-.8.7-1.3.9-.5.2-1.1.3-1.8.3-1,.1-1.9-.1-2.5-.7Zm4.5-.9c.5-.2.8-.5,1-.9v-1.1c-.8-.5-1.6-.8-2.6-.8-.7,0-1.2.1-1.5.4-.3.3-.5.7-.5,1.2,0,1,.7,1.6,2,1.6.6-.1,1.1-.2,1.6-.4Z"/><path class="cls-1" d="m375.65,19.3v-1.4c.3.1.7.2,1.1.2s.7-.1,1-.3c.2-.2.5-.5.6-1l.4-1-3.7-8.3h1.9l2.8,6.6,2.6-6.6h1.9l-3.8,9.5c-.4.9-.8,1.5-1.3,1.9s-1.1.6-1.9.6c-.7,0-1.2-.1-1.6-.2Z"/><path class="cls-1" d="m393.75,16c-.7-.1-1.2-.3-1.7-.5v-1.5c1.1.5,2.3.8,3.5.8,1.1,0,1.9-.2,2.4-.6s.8-1,.8-1.7c0-.8-.3-1.3-.8-1.6s-1.4-.5-2.5-.5h-1.5v-1.5h1.4c.9,0,1.6-.2,2.1-.5.5-.4.8-.9.8-1.6s-.2-1.2-.7-1.6-1.1-.5-2-.5c-.7,0-1.3.1-1.8.2s-1.1.4-1.6.8v-1.5c1-.6,2.3-.9,3.7-.9s2.4.3,3.2.9c.7.6,1.1,1.5,1.1,2.6,0,.7-.2,1.2-.5,1.7s-.9.9-1.6,1.1c.8.2,1.4.5,1.9,1,.4.5.6,1.1.6,1.9,0,1.1-.4,2-1.1,2.7s-2,1-3.7,1c-.7,0-1.4-.1-2-.2Z"/><path class="cls-1" d="m404.85,5.5l-2.7,1.9v-1.7l2.9-2.2h1.6v12.4h-1.8V5.5Z"/><path class="cls-1" d="m422.85,19.9c-.6-.1-1.1-.2-1.5-.4v-2.4c.9.4,2,.6,3.2.6.8,0,1.3-.2,1.7-.5.4-.3.5-.8.5-1.4v-.5c-.3.3-.7.5-1.2.6-.5.2-1,.2-1.5.2-.9,0-1.7-.2-2.4-.6-.7-.4-1.2-.9-1.6-1.6s-.6-1.5-.6-2.4.2-1.7.6-2.4.9-1.2,1.6-1.6c.7-.4,1.5-.6,2.4-.6.6,0,1.1.1,1.6.3s.9.4,1.3.8v-.8h3.4v8.1c0,1.5-.5,2.7-1.4,3.5s-2.4,1.2-4.4,1.2c-.5,0-1.1,0-1.7-.1Zm3.3-6.7c.3-.2.5-.5.7-.8v-1.4c-.1-.3-.4-.6-.7-.8s-.7-.3-1.1-.3c-.6,0-1,.1-1.3.5-.3.3-.5.7-.5,1.3s.2,1,.5,1.3.8.5,1.3.5c.4,0,.8-.1,1.1-.3Z"/><path class="cls-1" d="m431.75,7.4h3.4v.9c.3-.3.8-.6,1.4-.8s1.2-.3,1.9-.3v2.8c-.8,0-1.4.1-2,.3s-1,.5-1.2.9v4.7h-3.5V7.4h0Z"/><path class="cls-1" d="m439.05,15.5c-.7-.5-1-1.2-1-2.2s.3-1.7,1-2.2c.6-.5,1.6-.8,2.8-.8.4,0,.9.1,1.3.1.5.1.8.2,1.1.4v-.2c0-.4-.2-.7-.6-.9s-.9-.3-1.6-.3c-1,0-2,.2-2.8.6v-2.3c.4-.2.9-.3,1.5-.4s1.3-.2,2-.2c1.6,0,2.9.3,3.8.9.9.6,1.3,1.5,1.3,2.7v5.2h-3.4v-.6c-.3.3-.7.5-1.2.7s-1,.3-1.6.3c-1-.1-1.9-.3-2.6-.8Zm4.6-1.5c.3-.1.5-.3.6-.5v-.7c-.4-.3-.9-.4-1.5-.4-.3,0-.6.1-.8.2s-.3.4-.3.6c0,.3.1.5.3.6s.4.2.8.2c.4.2.7.1.9,0Z"/><path class="cls-1" d="m449.25,7.4h3.4v.8c.4-.4.8-.6,1.3-.8.5-.2,1-.3,1.6-.3,1.2,0,2.1.3,2.7.9s.9,1.5.9,2.6v5.3h-3.6v-4.8c0-.4-.1-.7-.3-.9-.2-.2-.5-.3-.8-.3-.7,0-1.2.3-1.6,1v5h-3.5l-.1-8.5h0Z"/><path class="cls-1" d="m462.15,15.6c-.7-.4-1.2-.9-1.6-1.6s-.6-1.5-.6-2.4.2-1.7.6-2.4.9-1.2,1.6-1.6c.7-.4,1.5-.6,2.4-.6.5,0,1.1.1,1.5.2s.9.4,1.2.6V2.6h3.5v13.3h-3.4v-.8c-.4.3-.8.6-1.3.8s-1,.3-1.6.3c-.8,0-1.6-.2-2.3-.6Zm4.4-2.4c.3-.2.5-.4.7-.8v-1.4c-.1-.3-.4-.6-.7-.8s-.7-.3-1.1-.3c-.6,0-1,.2-1.3.5s-.5.8-.5,1.3.2,1,.5,1.3.8.5,1.3.5c.4,0,.8-.1,1.1-.3Z"/><path class="cls-1" d="m480.05,15.6c-.8-.4-1.4-.9-1.9-1.6-.4-.7-.7-1.5-.7-2.3,0-.9.2-1.6.7-2.3s1.1-1.2,1.9-1.6c.8-.4,1.8-.6,2.9-.6s2,.2,2.9.6c.8.4,1.4.9,1.9,1.6s.7,1.5.7,2.3c0,.9-.2,1.7-.7,2.3-.4.7-1.1,1.2-1.9,1.6s-1.8.6-2.9.6c-1.1,0-2-.2-2.9-.6Zm4.2-2.6c.3-.3.5-.8.5-1.3s-.2-1-.5-1.3-.8-.5-1.3-.5-1,.2-1.3.5-.5.7-.5,1.3c0,.5.2,1,.5,1.3s.7.5,1.3.5c.5,0,.9-.2,1.3-.5Z"/><path class="cls-1" d="m489.45,7.4h3.4v.8c.4-.3.8-.6,1.3-.8.5-.2,1-.3,1.6-.3.9,0,1.7.2,2.4.6.7.4,1.2.9,1.6,1.6s.6,1.5.6,2.4-.2,1.7-.6,2.4-.9,1.2-1.6,1.6-1.5.6-2.4.6c-.5,0-1-.1-1.5-.2s-.9-.4-1.2-.6v4.3h-3.5V7.4h-.1Zm6.6,5.6c.3-.3.5-.8.5-1.3,0-.6-.2-1-.5-1.3s-.8-.5-1.3-.5c-.4,0-.8.1-1.1.3s-.5.5-.7.8v1.4c.1.3.4.6.7.8s.7.3,1.1.3c.5,0,1-.2,1.3-.5Z"/><path class="cls-1" d="m502.35,15c-1-.8-1.4-1.9-1.4-3.3s.4-2.5,1.3-3.3,2.1-1.2,3.7-1.2c1,0,1.9.2,2.7.6.7.4,1.3.9,1.7,1.6.4.7.6,1.4.6,2.3v1.1h-6.7c.3.8,1.1,1.1,2.6,1.1.6,0,1.1,0,1.8-.1s1.1-.2,1.5-.4v2.2c-.5.2-1,.3-1.7.4s-1.4.2-2.1.2c-1.7,0-3-.4-4-1.2Zm5.2-4.3c-.1-.4-.2-.7-.5-.9s-.6-.3-1.1-.3-.8.1-1.1.3-.4.5-.5.9c-.1,0,3.2,0,3.2,0Z"/><path class="cls-1" d="m511.95,7.4h3.4v.8c.4-.4.8-.6,1.3-.8.5-.2,1-.3,1.6-.3,1.2,0,2.1.3,2.7.9s.9,1.5.9,2.6v5.3h-3.6v-4.8c0-.4-.1-.7-.3-.9-.2-.2-.5-.3-.8-.3-.7,0-1.2.3-1.6,1v5h-3.5l-.1-8.5h0Z"/><path class="cls-1" d="m523.15,7.4h3.5v8.5h-3.5V7.4Zm.5-1.5c-.3-.3-.5-.8-.5-1.3s.2-1,.5-1.3c.4-.4.8-.5,1.3-.5s1,.2,1.3.5.5.8.5,1.3-.2,1-.5,1.3c-.4.4-.8.5-1.3.5-.5.1-1-.1-1.3-.5Z"/><path class="cls-1" d="m528.25,7.4h3.4v.8c.4-.4.8-.6,1.3-.8.5-.2,1-.3,1.6-.3,1.2,0,2.1.3,2.7.9s.9,1.5.9,2.6v5.3h-3.6v-4.8c0-.4-.1-.7-.3-.9s-.5-.3-.8-.3c-.7,0-1.2.3-1.6,1v5h-3.6V7.4Z"/><path class="cls-1" d="m542.35,19.9c-.6-.1-1.1-.2-1.5-.4v-2.4c.9.4,2,.6,3.2.6.8,0,1.3-.2,1.7-.5s.5-.8.5-1.4v-.5c-.3.3-.7.5-1.2.6-.5.2-1,.2-1.5.2-.9,0-1.7-.2-2.4-.6-.7-.4-1.2-.9-1.6-1.6s-.6-1.5-.6-2.4.2-1.7.6-2.4.9-1.2,1.6-1.6c.7-.4,1.5-.6,2.4-.6.6,0,1.1.1,1.6.3s.9.4,1.3.8v-.8h3.4v8.1c0,1.5-.5,2.7-1.4,3.5s-2.4,1.2-4.4,1.2c-.5,0-1.1,0-1.7-.1Zm3.3-6.7c.3-.2.5-.5.7-.8v-1.4c-.2-.3-.4-.6-.7-.8s-.7-.3-1.1-.3c-.6,0-1,.1-1.3.5-.3.3-.5.7-.5,1.3s.2,1,.5,1.3.8.5,1.3.5c.4,0,.7-.1,1.1-.3Z"/><path class="cls-1" d="m557.45,7.4h1.7v1.2c.4-.5.9-.9,1.4-1.1.5-.3,1-.4,1.6-.4.7,0,1.2.1,1.6.4s.7.6.9,1.1c.4-.5.8-.8,1.4-1.1.5-.2,1.1-.3,1.7-.3,1,0,1.8.3,2.2.8s.7,1.3.7,2.3v5.6h-1.7v-5.4c0-.7-.1-1.2-.4-1.5-.3-.3-.7-.4-1.3-.4-.9,0-1.6.4-2.2,1.2v6.1h-1.8v-5.4c0-.7-.1-1.2-.4-1.5-.2-.3-.7-.4-1.3-.4-.9,0-1.7.5-2.4,1.5v5.8h-1.8l.1-8.5h0Z"/><path class="cls-1" d="m573.15,15.4c-.6-.5-.9-1.2-.9-2.1s.3-1.7.9-2.2c.6-.5,1.5-.8,2.5-.8,1.2,0,2.2.2,3,.7v-.4c0-.7-.2-1.2-.6-1.5-.4-.3-1-.5-1.9-.5-.5,0-1,.1-1.5.1s-.9.2-1.3.4v-1.5c.3-.2.8-.3,1.4-.4.6-.1,1.1-.2,1.7-.2,1.4,0,2.5.3,3.1.9s1,1.5,1,2.6v5.4h-1.7v-1c-.4.4-.8.7-1.3.9-.5.2-1.1.3-1.8.3-1.2.1-2-.1-2.6-.7Zm4.4-.9c.5-.2.8-.5,1-.9v-1.1c-.8-.5-1.6-.8-2.6-.8-.7,0-1.2.1-1.5.4-.3.3-.5.7-.5,1.2,0,1,.7,1.6,2,1.6.6-.1,1.2-.2,1.6-.4Z"/><path class="cls-1" d="m582.05,19.3v-1.4c.3.1.7.2,1.1.2s.7-.1,1-.3.5-.5.6-1l.4-1-3.7-8.3h1.8l2.8,6.6,2.7-6.6h1.8l-3.8,9.5c-.4.9-.8,1.5-1.3,1.9s-1.1.6-1.9.6c-.5,0-1.1-.1-1.5-.2Z"/><path class="cls-1" d="m600.15,16c-.7-.1-1.2-.3-1.7-.5v-1.5c1.1.5,2.3.8,3.5.8,1.1,0,1.9-.2,2.4-.6s.8-1,.8-1.7c0-.8-.3-1.3-.8-1.6s-1.4-.5-2.5-.5h-1.5v-1.5h1.4c.9,0,1.6-.2,2.2-.5.5-.4.8-.9.8-1.6s-.2-1.2-.7-1.6-1.1-.5-2-.5c-.7,0-1.3.1-1.8.2s-1.1.4-1.7.8v-1.5c1-.6,2.3-.9,3.7-.9s2.4.3,3.2.9c.7.6,1.1,1.5,1.1,2.6,0,.7-.2,1.2-.5,1.7s-.9.9-1.6,1.1c.8.2,1.4.5,1.9,1,.4.5.7,1.1.7,1.9,0,1.1-.4,2-1.2,2.7s-2,1-3.7,1c-.6,0-1.3-.1-2-.2Z"/><path class="cls-1" d="m611.35,5.5l-2.7,1.9v-1.7l2.9-2.2h1.6v12.4h-1.8V5.5Z"/><path class="cls-1" d="m629.35,19.9c-.6-.1-1.1-.2-1.5-.4v-2.4c.9.4,2,.6,3.2.6.8,0,1.3-.2,1.7-.5s.5-.8.5-1.4v-.5c-.3.3-.7.5-1.2.6-.5.2-1,.2-1.5.2-.9,0-1.7-.2-2.4-.6-.7-.4-1.2-.9-1.6-1.6-.4-.7-.6-1.5-.6-2.4s.2-1.7.6-2.4c.4-.7.9-1.2,1.6-1.6.7-.4,1.5-.6,2.4-.6.6,0,1.1.1,1.6.3s.9.4,1.3.8v-.8h3.4v8.1c0,1.5-.5,2.7-1.4,3.5-.9.8-2.4,1.2-4.4,1.2-.6,0-1.1,0-1.7-.1Zm3.2-6.7c.3-.2.5-.5.7-.8v-1.4c-.2-.3-.4-.6-.7-.8s-.7-.3-1.1-.3c-.6,0-1,.1-1.3.5-.3.3-.5.7-.5,1.3s.2,1,.5,1.3.8.5,1.3.5.8-.1,1.1-.3Z"/><path class="cls-1" d="m638.25,7.4h3.4v.9c.3-.3.8-.6,1.4-.8.6-.2,1.2-.3,1.9-.3v2.8c-.8,0-1.4.1-2,.3s-1,.5-1.2.9v4.7h-3.5V7.4h0Z"/><path class="cls-1" d="m645.55,15.5c-.7-.5-1-1.2-1-2.2s.3-1.7,1-2.2c.6-.5,1.6-.8,2.8-.8.4,0,.9.1,1.3.1.5.1.8.2,1.1.4v-.2c0-.4-.2-.7-.6-.9-.4-.2-.9-.3-1.6-.3-1,0-2,.2-2.8.6v-2.3c.4-.2.9-.3,1.5-.4s1.3-.2,2-.2c1.7,0,2.9.3,3.8.9.9.6,1.3,1.5,1.3,2.7v5.2h-3.3v-.6c-.3.3-.7.5-1.2.7s-1,.3-1.6.3c-1.2-.1-2.1-.3-2.7-.8Zm4.6-1.5c.3-.1.5-.3.6-.5v-.7c-.4-.3-.9-.4-1.5-.4-.3,0-.6.1-.8.2s-.2.4-.2.7.1.5.3.6.4.2.8.2c.2.1.5,0,.8-.1Z"/><path class="cls-1" d="m655.65,7.4h3.4v.8c.4-.4.8-.6,1.3-.8.5-.2,1-.3,1.6-.3,1.2,0,2.1.3,2.7.9s.9,1.5.9,2.6v5.3h-3.6v-4.8c0-.4-.1-.7-.3-.9s-.5-.3-.8-.3c-.7,0-1.2.3-1.6,1v5h-3.5V7.4h-.1Z"/><path class="cls-1" d="m668.55,15.6c-.7-.4-1.2-.9-1.6-1.6s-.6-1.5-.6-2.4.2-1.7.6-2.4.9-1.2,1.6-1.6c.7-.4,1.5-.6,2.4-.6.5,0,1.1.1,1.5.2.5.2.9.4,1.2.6V2.6h3.5v13.3h-3.4v-.8c-.4.3-.8.6-1.3.8s-1,.3-1.6.3c-.8,0-1.6-.2-2.3-.6Zm4.5-2.4c.3-.2.5-.4.7-.8v-1.4c-.2-.3-.4-.6-.7-.8s-.7-.3-1.1-.3c-.6,0-1,.2-1.3.5s-.5.8-.5,1.3.2,1,.5,1.3.8.5,1.3.5c.4,0,.8-.1,1.1-.3Z"/><path class="cls-1" d="m686.55,15.6c-.8-.4-1.4-.9-1.9-1.6-.4-.7-.7-1.5-.7-2.3,0-.9.2-1.6.7-2.3s1.1-1.2,1.9-1.6c.8-.4,1.8-.6,2.9-.6s2,.2,2.9.6,1.4.9,1.9,1.6.7,1.5.7,2.3c0,.9-.2,1.7-.7,2.3-.4.7-1.1,1.2-1.9,1.6-.8.4-1.8.6-2.9.6-1.2,0-2.1-.2-2.9-.6Zm4.1-2.6c.3-.3.5-.8.5-1.3s-.2-1-.5-1.3-.8-.5-1.3-.5-1,.2-1.3.5-.5.7-.5,1.3c0,.5.2,1,.5,1.3s.7.5,1.3.5,1-.2,1.3-.5Z"/><path class="cls-1" d="m695.85,7.4h3.4v.8c.3-.3.8-.6,1.3-.8.5-.2,1-.3,1.6-.3.9,0,1.7.2,2.4.6.7.4,1.2.9,1.6,1.6.4.7.6,1.5.6,2.4s-.2,1.7-.6,2.4-.9,1.2-1.6,1.5-1.5.6-2.4.6c-.5,0-1-.1-1.5-.2s-.9-.4-1.2-.6v4.4h-3.6V7.4Zm6.6,5.6c.3-.3.5-.8.5-1.3,0-.6-.2-1-.5-1.3s-.8-.5-1.3-.5c-.4,0-.8.1-1.1.3s-.5.5-.7.8v1.4c.1.3.4.6.7.8s.7.3,1.1.3c.6,0,1-.2,1.3-.5Z"/><path class="cls-1" d="m708.85,15c-1-.8-1.4-1.9-1.4-3.3s.4-2.5,1.3-3.3c.9-.8,2.1-1.2,3.7-1.2,1,0,1.9.2,2.7.6.7.4,1.3.9,1.7,1.6.4.7.6,1.4.6,2.3v1.1h-6.6c.3.8,1.1,1.1,2.6,1.1.6,0,1.2,0,1.8-.1s1.1-.2,1.5-.4v2.2c-.5.2-1,.3-1.7.4s-1.4.2-2.1.2c-1.9,0-3.2-.4-4.1-1.2Zm5.1-4.3c-.1-.4-.2-.7-.5-.9s-.7-.3-1.1-.3c-.5,0-.8.1-1.1.3s-.4.5-.5.9c0,0,3.2,0,3.2,0Z"/><path class="cls-1" d="m718.35,7.4h3.4v.8c.4-.4.8-.6,1.3-.8.5-.2,1-.3,1.6-.3,1.2,0,2.1.3,2.7.9s.9,1.5.9,2.6v5.3h-3.6v-4.8c0-.4-.1-.7-.3-.9s-.5-.3-.8-.3c-.7,0-1.2.3-1.6,1v5h-3.5V7.4h-.1Z"/><path class="cls-1" d="m729.65,7.4h3.5v8.5h-3.5V7.4Zm.4-1.5c-.3-.3-.5-.8-.5-1.3s.2-1,.5-1.3.8-.5,1.3-.5,1,.2,1.3.5c.4.4.5.8.5,1.3s-.2,1-.5,1.3c-.4.4-.8.5-1.3.5-.5.1-.9-.1-1.3-.5Z"/><path class="cls-1" d="m734.65,7.4h3.4v.8c.4-.4.8-.6,1.3-.8.5-.2,1-.3,1.6-.3,1.2,0,2.1.3,2.7.9s.9,1.5.9,2.6v5.3h-3.6v-4.8c0-.4-.1-.7-.3-.9s-.5-.3-.8-.3c-.7,0-1.2.3-1.6,1v5h-3.5V7.4h-.1Z"/><path class="cls-1" d="m748.85,19.9c-.6-.1-1.1-.2-1.5-.4v-2.4c.9.4,2,.6,3.2.6.8,0,1.3-.2,1.7-.5s.5-.8.5-1.4v-.5c-.3.3-.7.5-1.2.6-.5.2-1,.2-1.5.2-.9,0-1.7-.2-2.4-.6-.7-.4-1.2-.9-1.6-1.6-.4-.7-.6-1.5-.6-2.4s.2-1.7.6-2.4c.4-.7.9-1.2,1.6-1.6.7-.4,1.5-.6,2.4-.6.6,0,1.1.1,1.6.3s.9.4,1.3.8v-.8h3.4v8.1c0,1.5-.5,2.7-1.4,3.5-.9.8-2.4,1.2-4.4,1.2-.6,0-1.1,0-1.7-.1Zm3.2-6.7c.3-.2.5-.5.7-.8v-1.4c-.2-.3-.4-.6-.7-.8s-.7-.3-1.1-.3c-.6,0-1,.1-1.3.5-.3.3-.5.7-.5,1.3s.2,1,.5,1.3.8.5,1.3.5c.4,0,.8-.1,1.1-.3Z"/><path class="cls-1" d="m763.85,7.4h1.7v1.2c.4-.5.9-.9,1.4-1.1.5-.3,1-.4,1.6-.4.7,0,1.2.1,1.6.4.4.2.7.6.9,1.1.4-.5.8-.8,1.4-1.1.5-.2,1.1-.3,1.7-.3,1,0,1.8.3,2.2.8.5.5.7,1.3.7,2.3v5.6h-1.8v-5.4c0-.7-.1-1.2-.4-1.5-.3-.3-.7-.4-1.3-.4-.9,0-1.6.4-2.2,1.2v6.1h-1.7v-5.4c0-.7-.1-1.2-.3-1.5s-.7-.4-1.3-.4c-.9,0-1.7.5-2.4,1.5v5.8h-1.8V7.4h0Z"/><path class="cls-1" d="m779.55,15.4c-.6-.5-.9-1.2-.9-2.1s.3-1.7.9-2.2c.6-.5,1.4-.8,2.5-.8,1.2,0,2.2.2,3,.7v-.4c0-.7-.2-1.2-.6-1.5-.4-.3-1-.5-1.9-.5-.5,0-1,.1-1.5.1-.5.1-.9.2-1.3.4v-1.5c.4-.2.8-.3,1.4-.4.6-.1,1.1-.2,1.7-.2,1.4,0,2.4.3,3.1.9.7.6,1,1.5,1,2.6v5.4h-1.7v-1c-.4.4-.8.7-1.3.9-.5.2-1.1.3-1.8.3-1.1.1-2-.1-2.6-.7Zm4.5-.9c.5-.2.8-.5,1-.9v-1.1c-.8-.5-1.6-.8-2.6-.8-.7,0-1.2.1-1.5.4-.3.3-.5.7-.5,1.2,0,1,.7,1.6,2,1.6.6-.1,1.1-.2,1.6-.4Z"/><path class="cls-1" d="m788.45,19.3v-1.4c.3.1.7.2,1.1.2s.7-.1,1-.3.5-.5.6-1l.4-1-3.7-8.3h1.8l2.8,6.6,2.6-6.6h1.9l-3.7,9.4c-.3.9-.8,1.5-1.3,1.9s-1.1.6-1.9.6c-.6.1-1.1,0-1.6-.1Z"/><path class="cls-1" d="m806.65,16c-.7-.1-1.2-.3-1.7-.5v-1.5c1.1.5,2.3.8,3.5.8,1.1,0,1.9-.2,2.4-.6.5-.4.8-1,.8-1.7,0-.8-.3-1.3-.8-1.6s-1.4-.5-2.5-.5h-1.5v-1.5h1.4c.9,0,1.6-.2,2.2-.5.5-.4.8-.9.8-1.6s-.2-1.2-.7-1.6c-.4-.4-1.1-.5-1.9-.5-.7,0-1.3.1-1.8.2s-1.1.4-1.6.8v-1.5c1-.6,2.3-.9,3.7-.9s2.4.3,3.2.9c.7.6,1.1,1.5,1.1,2.6,0,.7-.2,1.2-.5,1.7s-.9.9-1.6,1.1c.8.2,1.4.5,1.8,1s.7,1.1.7,1.9c0,1.1-.4,2-1.2,2.7s-2,1-3.7,1c-.8,0-1.5-.1-2.1-.2Z"/><path class="cls-1" d="m817.75,5.5l-2.7,1.9v-1.7l2.9-2.2h1.6v12.4h-1.8V5.5Z"/><path class="cls-1" d="m835.75,19.9c-.6-.1-1.1-.2-1.5-.4v-2.4c.9.4,2,.6,3.2.6.8,0,1.3-.2,1.7-.5s.5-.8.5-1.4v-.5c-.3.3-.7.5-1.2.6-.5.2-1,.2-1.5.2-.9,0-1.7-.2-2.4-.6-.7-.4-1.2-.9-1.6-1.6-.4-.7-.6-1.5-.6-2.4s.2-1.7.6-2.4c.4-.7.9-1.2,1.6-1.6.7-.4,1.5-.6,2.4-.6.6,0,1.1.1,1.6.3s.9.4,1.3.8v-.8h3.4v8.1c0,1.5-.5,2.7-1.4,3.5-.9.8-2.4,1.2-4.4,1.2-.5,0-1.1,0-1.7-.1Zm3.3-6.7c.3-.2.6-.5.7-.8v-1.4c-.1-.3-.4-.6-.7-.8s-.7-.3-1.1-.3c-.6,0-1,.1-1.3.5-.3.3-.5.7-.5,1.3s.2,1,.5,1.3.8.5,1.3.5c.4,0,.8-.1,1.1-.3Z"/><path class="cls-1" d="m844.75,7.4h3.4v.9c.3-.3.8-.6,1.4-.8.6-.2,1.2-.3,1.9-.3v2.8c-.8,0-1.4.1-2,.3s-1,.5-1.2.9v4.7h-3.6l.1-8.5h0Z"/><path class="cls-1" d="m851.95,15.5c-.7-.5-1-1.2-1-2.2s.3-1.7,1-2.2,1.6-.8,2.8-.8c.4,0,.9.1,1.3.1s.8.2,1.1.4v-.2c0-.4-.2-.7-.6-.9s-.9-.3-1.6-.3c-1,0-2,.2-2.8.6v-2.3c.4-.2.9-.3,1.5-.4s1.3-.2,2-.2c1.7,0,2.9.3,3.8.9.9.6,1.3,1.5,1.3,2.7v5.2h-3.3v-.6c-.3.3-.7.5-1.2.7s-1.1.3-1.7.3c-1.1-.1-1.9-.3-2.6-.8Zm4.6-1.5c.3-.1.5-.3.6-.5v-.7c-.4-.3-.9-.4-1.5-.4-.3,0-.6.1-.8.2s-.3.4-.3.6c0,.3.1.5.3.6s.4.2.8.2c.4.2.6.1.9,0Z"/><path class="cls-1" d="m862.05,7.4h3.4v.8c.4-.4.8-.6,1.3-.8.5-.2,1-.3,1.6-.3,1.2,0,2.1.3,2.7.9s.9,1.5.9,2.6v5.3h-3.6v-4.8c0-.4-.1-.7-.3-.9s-.4-.3-.8-.3c-.7,0-1.2.3-1.6,1v5h-3.6V7.4h0Z"/><path class="cls-1" d="m875.05,15.6c-.7-.4-1.2-.9-1.6-1.6s-.6-1.5-.6-2.4.2-1.7.6-2.4.9-1.2,1.6-1.6c.7-.4,1.5-.6,2.4-.6.5,0,1.1.1,1.5.2.5.2.9.4,1.2.6V2.6h3.5v13.3h-3.4v-.8c-.3.3-.8.6-1.3.8-.5.2-1,.3-1.6.3-.8,0-1.6-.2-2.3-.6Zm4.4-2.4c.3-.2.5-.4.7-.8v-1.4c-.1-.3-.4-.6-.7-.8s-.7-.3-1.1-.3c-.6,0-1,.2-1.3.5s-.5.8-.5,1.3.2,1,.5,1.3.8.5,1.3.5c.4,0,.8-.1,1.1-.3Z"/><path class="cls-1" d="m892.95,15.6c-.8-.4-1.4-.9-1.9-1.6-.4-.7-.7-1.5-.7-2.3,0-.9.2-1.6.7-2.3s1.1-1.2,1.9-1.6c.8-.4,1.8-.6,2.9-.6s2,.2,2.9.6,1.4.9,1.9,1.6.7,1.5.7,2.3c0,.9-.2,1.7-.7,2.3-.4.7-1.1,1.2-1.9,1.6-.8.4-1.8.6-2.9.6-1.1,0-2.1-.2-2.9-.6Zm4.2-2.6c.3-.3.5-.8.5-1.3s-.2-1-.5-1.3-.8-.5-1.3-.5-1,.2-1.3.5-.5.7-.5,1.3c0,.5.2,1,.5,1.3s.7.5,1.3.5c.5,0,.9-.2,1.3-.5Z"/><path class="cls-1" d="m902.25,7.4h3.4v.8c.4-.3.8-.6,1.3-.8.5-.2,1-.3,1.6-.3.9,0,1.7.2,2.4.6.7.4,1.2.9,1.6,1.6.4.7.6,1.5.6,2.4s-.2,1.7-.6,2.4-.9,1.2-1.6,1.6-1.5.6-2.4.6c-.5,0-1-.1-1.5-.2s-.9-.4-1.2-.6v4.3h-3.6V7.4Zm6.7,5.6c.3-.3.5-.8.5-1.3,0-.6-.2-1-.5-1.3s-.8-.5-1.3-.5c-.4,0-.8.1-1.1.3s-.5.5-.7.8v1.4c.1.3.4.6.7.8s.7.3,1.1.3c.5,0,1-.2,1.3-.5Z"/><path class="cls-1" d="m915.25,15c-1-.8-1.4-1.9-1.4-3.3s.4-2.5,1.3-3.3c.9-.8,2.1-1.2,3.7-1.2,1,0,1.9.2,2.7.6.7.4,1.3.9,1.7,1.6.4.7.6,1.4.6,2.3v1.1h-6.6c.3.8,1.1,1.1,2.6,1.1.6,0,1.1,0,1.8-.1.6-.1,1.1-.2,1.5-.4v2.2c-.5.2-1,.3-1.7.4s-1.4.2-2.1.2c-1.8,0-3.1-.4-4.1-1.2Zm5.2-4.3c-.1-.4-.2-.7-.5-.9s-.6-.3-1.1-.3-.8.1-1.1.3-.4.5-.5.9c-.1,0,3.2,0,3.2,0Z"/><path class="cls-1" d="m924.85,7.4h3.4v.8c.4-.4.8-.6,1.3-.8.5-.2,1-.3,1.6-.3,1.2,0,2.1.3,2.7.9s.9,1.5.9,2.6v5.3h-3.6v-4.8c0-.4-.1-.7-.3-.9s-.5-.3-.8-.3c-.7,0-1.3.3-1.6,1v5h-3.5l-.1-8.5h0Z"/><path class="cls-1" d="m936.05,7.4h3.5v8.5h-3.5V7.4Zm.5-1.5c-.3-.3-.5-.8-.5-1.3s.2-1,.5-1.3c.4-.4.8-.5,1.3-.5s1,.2,1.3.5c.4.4.5.8.5,1.3s-.2,1-.5,1.3c-.4.4-.8.5-1.3.5-.5.1-1-.1-1.3-.5Z"/><path class="cls-1" d="m941.15,7.4h3.4v.8c.4-.4.8-.6,1.3-.8.5-.2,1-.3,1.6-.3,1.2,0,2.1.3,2.7.9s.9,1.5.9,2.6v5.3h-3.6v-4.8c0-.4-.1-.7-.3-.9s-.5-.3-.8-.3c-.7,0-1.2.3-1.6,1v5h-3.5l-.1-8.5h0Z"/><path class="cls-1" d="m955.25,19.9c-.6-.1-1.1-.2-1.5-.4v-2.4c.9.4,2,.6,3.2.6.8,0,1.3-.2,1.7-.5s.5-.8.5-1.4v-.5c-.3.3-.7.5-1.2.6-.5.2-1,.2-1.5.2-.9,0-1.7-.2-2.4-.6-.7-.4-1.2-.9-1.6-1.6s-.6-1.5-.6-2.4.2-1.7.6-2.4.9-1.2,1.6-1.6c.7-.4,1.5-.6,2.4-.6.6,0,1.1.1,1.6.3s.9.4,1.3.8v-.8h3.4v8.1c0,1.5-.5,2.7-1.4,3.5s-2.4,1.2-4.4,1.2c-.5,0-1.1,0-1.7-.1Zm3.3-6.7c.3-.2.5-.5.7-.8v-1.4c-.2-.3-.4-.6-.7-.8s-.7-.3-1.1-.3c-.6,0-1,.1-1.3.5-.3.3-.5.7-.5,1.3s.2,1,.5,1.3.8.5,1.3.5c.4,0,.8-.1,1.1-.3Z"/><path class="cls-1" d="m970.35,7.4h1.7v1.2c.4-.5.9-.9,1.4-1.1.5-.3,1-.4,1.6-.4.7,0,1.2.1,1.6.4.4.2.7.6.9,1.1.4-.5.8-.8,1.4-1.1.5-.2,1.1-.3,1.7-.3,1,0,1.8.3,2.2.8.5.5.7,1.3.7,2.3v5.6h-1.7v-5.4c0-.7-.1-1.2-.4-1.5-.3-.3-.7-.4-1.3-.4-.9,0-1.6.4-2.2,1.2v6.1h-1.7v-5.4c0-.7-.1-1.2-.4-1.5-.2-.3-.7-.4-1.3-.4-.9,0-1.7.5-2.4,1.5v5.8h-1.8V7.4h0Z"/><path class="cls-1" d="m986.05,15.4c-.6-.5-.9-1.2-.9-2.1s.3-1.7.9-2.2c.6-.5,1.5-.8,2.5-.8,1.2,0,2.2.2,3,.7v-.4c0-.7-.2-1.2-.6-1.5-.4-.3-1-.5-1.9-.5-.5,0-1,.1-1.5.1s-.9.2-1.3.4v-1.5c.4-.2.8-.3,1.4-.4.6-.1,1.1-.2,1.7-.2,1.4,0,2.5.3,3.1.9s1,1.5,1,2.6v5.4h-1.7v-1c-.4.4-.8.7-1.3.9-.5.2-1.1.3-1.8.3-1.2.1-2-.1-2.6-.7Zm4.4-.9c.5-.2.8-.5,1-.9v-1.1c-.8-.5-1.6-.8-2.6-.8-.7,0-1.2.1-1.5.4-.3.3-.5.7-.5,1.2,0,1,.7,1.6,2,1.6.6-.1,1.2-.2,1.6-.4Z"/><path class="cls-1" d="m994.95,19.3v-1.4c.3.1.7.2,1.1.2s.7-.1,1-.3.5-.5.6-1l.4-1-3.7-8.3h1.9l2.8,6.6,2.7-6.6h1.8l-3.8,9.5c-.4.9-.8,1.5-1.3,1.9s-1.1.6-1.9.6c-.6,0-1.2-.1-1.6-.2Z"/><path class="cls-1" d="m1013.05,16c-.7-.1-1.2-.3-1.7-.5v-1.5c1.1.5,2.3.8,3.5.8,1.1,0,1.9-.2,2.4-.6s.8-1,.8-1.7c0-.8-.3-1.3-.8-1.6s-1.4-.5-2.5-.5h-1.5v-1.5h1.4c.9,0,1.6-.2,2.2-.5.5-.4.8-.9.8-1.6s-.2-1.2-.7-1.6-1.1-.5-2-.5c-.7,0-1.3.1-1.8.2s-1.1.4-1.7.8v-1.5c1-.6,2.3-.9,3.7-.9s2.4.3,3.2.9c.7.6,1.1,1.5,1.1,2.6,0,.7-.2,1.2-.5,1.7s-.9.9-1.6,1.1c.8.2,1.4.5,1.9,1,.4.5.6,1.1.6,1.9,0,1.1-.4,2-1.1,2.7-.8.7-2,1-3.7,1-.6,0-1.3-.1-2-.2Z"/><path class="cls-1" d="m1024.25,5.5l-2.7,1.9v-1.7l2.9-2.2h1.6v12.4h-1.8V5.5Z"/><path class="cls-1" d="m1042.25,19.9c-.6-.1-1.1-.2-1.5-.4v-2.4c.9.4,2,.6,3.2.6.8,0,1.3-.2,1.7-.5s.5-.8.5-1.4v-.5c-.3.3-.7.5-1.2.6-.5.2-1,.2-1.5.2-.9,0-1.7-.2-2.4-.6-.7-.4-1.2-.9-1.6-1.6s-.6-1.5-.6-2.4.2-1.7.6-2.4.9-1.2,1.6-1.6c.7-.4,1.5-.6,2.4-.6.6,0,1.1.1,1.6.3s.9.4,1.3.8v-.8h3.4v8.1c0,1.5-.5,2.7-1.4,3.5-.9.8-2.4,1.2-4.4,1.2-.5,0-1.1,0-1.7-.1Zm3.2-6.7c.3-.2.6-.5.7-.8v-1.4c-.2-.3-.4-.6-.7-.8-.3-.2-.7-.3-1.1-.3-.6,0-1,.1-1.3.5-.3.3-.5.7-.5,1.3s.2,1,.5,1.3.8.5,1.3.5.8-.1,1.1-.3Z"/><path class="cls-1" d="m1051.15,7.4h3.4v.9c.3-.3.8-.6,1.4-.8s1.2-.3,1.9-.3v2.8c-.8,0-1.4.1-2,.3s-1,.5-1.2.9v4.7h-3.5V7.4h0Z"/><path class="cls-1" d="m1058.45,15.5c-.7-.5-1-1.2-1-2.2s.3-1.7,1-2.2,1.6-.8,2.8-.8c.4,0,.9.1,1.3.1.4.1.8.2,1.1.4v-.2c0-.4-.2-.7-.6-.9s-.9-.3-1.6-.3c-1,0-2,.2-2.8.6v-2.3c.4-.2.9-.3,1.5-.4s1.3-.2,2-.2c1.6,0,2.9.3,3.8.9.9.6,1.3,1.5,1.3,2.7v5.2h-3.4v-.6c-.3.3-.7.5-1.2.7s-1.1.3-1.7.3c-1-.1-1.9-.3-2.5-.8Zm4.6-1.5c.3-.1.5-.3.6-.5v-.7c-.4-.3-.9-.4-1.5-.4-.3,0-.6.1-.8.2-.2.1-.3.4-.3.6,0,.3.1.5.3.6.2.1.4.2.8.2.3.2.6.1.9,0Z"/><path class="cls-1" d="m1068.55,7.4h3.4v.8c.4-.4.8-.6,1.3-.8.5-.2,1-.3,1.6-.3,1.2,0,2.1.3,2.7.9.6.6.9,1.5.9,2.6v5.3h-3.6v-4.8c0-.4-.1-.7-.3-.9-.2-.2-.4-.3-.8-.3-.7,0-1.2.3-1.6,1v5h-3.6V7.4h0Z"/><path class="cls-1" d="m1081.55,15.6c-.7-.4-1.2-.9-1.6-1.6s-.6-1.5-.6-2.4.2-1.7.6-2.4.9-1.2,1.6-1.6c.7-.4,1.5-.6,2.4-.6.5,0,1.1.1,1.5.2.5.2.9.4,1.2.6V2.6h3.6v13.3h-3.4v-.8c-.4.3-.8.6-1.3.8s-1,.3-1.6.3c-1,0-1.8-.2-2.4-.6Zm4.4-2.4c.3-.2.5-.4.7-.8v-1.4c-.2-.3-.4-.6-.7-.8-.3-.2-.7-.3-1.1-.3-.6,0-1,.2-1.3.5s-.5.8-.5,1.3.2,1,.5,1.3.8.5,1.3.5c.4,0,.7-.1,1.1-.3Z"/><path class="cls-1" d="m1099.45,15.6c-.8-.4-1.4-.9-1.9-1.6-.4-.7-.7-1.5-.7-2.3,0-.9.2-1.6.7-2.3.4-.7,1.1-1.2,1.9-1.6.8-.4,1.8-.6,2.9-.6s2,.2,2.9.6c.8.4,1.4.9,1.9,1.6.4.7.7,1.5.7,2.3,0,.9-.2,1.7-.7,2.3-.4.7-1.1,1.2-1.9,1.6s-1.8.6-2.9.6c-1.2,0-2.1-.2-2.9-.6Zm4.1-2.6c.3-.3.5-.8.5-1.3s-.2-1-.5-1.3-.8-.5-1.3-.5-1,.2-1.3.5-.5.7-.5,1.3c0,.5.2,1,.5,1.3s.7.5,1.3.5,1-.2,1.3-.5Z"/><path class="cls-1" d="m1108.75,7.4h3.4v.8c.4-.3.8-.6,1.3-.8.5-.2,1-.3,1.6-.3.9,0,1.7.2,2.4.6.7.4,1.2.9,1.6,1.6s.6,1.5.6,2.4-.2,1.7-.6,2.4-.9,1.2-1.6,1.6-1.5.6-2.4.6c-.5,0-1-.1-1.5-.2s-.9-.4-1.2-.6v4.3h-3.5V7.4h-.1Zm6.7,5.6c.3-.3.5-.8.5-1.3,0-.6-.2-1-.5-1.3s-.8-.5-1.3-.5c-.4,0-.8.1-1.1.3-.3.2-.6.5-.7.8v1.4c.2.3.4.6.7.8.3.2.7.3,1.1.3.5,0,.9-.2,1.3-.5Z"/><path class="cls-1" d="m1121.75,15c-1-.8-1.4-1.9-1.4-3.3s.4-2.5,1.3-3.3,2.1-1.2,3.7-1.2c1,0,1.9.2,2.7.6.7.4,1.3.9,1.7,1.6.4.7.6,1.4.6,2.3v1.1h-6.6c.3.8,1.1,1.1,2.6,1.1.6,0,1.2,0,1.8-.1s1.1-.2,1.5-.4v2.2c-.5.2-1,.3-1.7.4s-1.4.2-2.1.2c-1.8,0-3.2-.4-4.1-1.2Zm5.1-4.3c-.1-.4-.2-.7-.5-.9s-.7-.3-1.1-.3-.8.1-1.1.3-.4.5-.5.9h3.2Z"/><path class="cls-1" d="m1131.25,7.4h3.4v.8c.4-.4.8-.6,1.3-.8.5-.2,1-.3,1.6-.3,1.2,0,2.1.3,2.7.9.6.6.9,1.5.9,2.6v5.3h-3.6v-4.8c0-.4-.1-.7-.3-.9-.2-.2-.4-.3-.8-.3-.7,0-1.2.3-1.6,1v5h-3.6V7.4h0Z"/><path class="cls-1" d="m1142.55,7.4h3.5v8.5h-3.5V7.4Zm.4-1.5c-.3-.3-.5-.8-.5-1.3s.2-1,.5-1.3c.4-.4.8-.5,1.3-.5s1,.2,1.3.5.5.8.5,1.3-.2,1-.5,1.3c-.4.4-.8.5-1.3.5-.5.1-.9-.1-1.3-.5Z"/><path class="cls-1" d="m1147.55,7.4h3.4v.8c.4-.4.8-.6,1.3-.8.5-.2,1-.3,1.6-.3,1.2,0,2.1.3,2.7.9.6.6.9,1.5.9,2.6v5.3h-3.6v-4.8c0-.4-.1-.7-.3-.9-.2-.2-.5-.3-.8-.3-.7,0-1.2.3-1.6,1v5h-3.5V7.4h-.1Z"/><path class="cls-1" d="m1161.75,19.9c-.6-.1-1.1-.2-1.5-.4v-2.4c.9.4,2,.6,3.2.6.8,0,1.3-.2,1.7-.5s.5-.8.5-1.4v-.5c-.3.3-.7.5-1.2.6-.5.2-1,.2-1.5.2-.9,0-1.7-.2-2.4-.6-.7-.4-1.2-.9-1.6-1.6s-.6-1.5-.6-2.4.2-1.7.6-2.4.9-1.2,1.6-1.6c.7-.4,1.5-.6,2.4-.6.6,0,1.1.1,1.6.3s.9.4,1.3.8v-.8h3.4v8.1c0,1.5-.5,2.7-1.4,3.5s-2.4,1.2-4.4,1.2c-.6,0-1.1,0-1.7-.1Zm3.2-6.7c.3-.2.6-.5.7-.8v-1.4c-.2-.3-.4-.6-.7-.8-.3-.2-.7-.3-1.1-.3-.6,0-1,.1-1.3.5-.3.3-.5.7-.5,1.3s.2,1,.5,1.3.8.5,1.3.5.8-.1,1.1-.3Z"/><path class="cls-1" d="m1176.75,7.4h1.7v1.2c.4-.5.9-.9,1.4-1.1.5-.3,1-.4,1.6-.4.7,0,1.2.1,1.6.4s.7.6.9,1.1c.4-.5.8-.8,1.4-1.1.5-.2,1.1-.3,1.7-.3,1,0,1.8.3,2.2.8.5.5.7,1.3.7,2.3v5.6h-1.7v-5.4c0-.7-.1-1.2-.4-1.5s-.7-.4-1.3-.4c-.9,0-1.6.4-2.2,1.2v6.1h-1.7v-5.4c0-.7-.1-1.2-.4-1.5-.2-.3-.7-.4-1.3-.4-.9,0-1.7.5-2.4,1.5v5.8h-1.8V7.4h0Z"/><path class="cls-1" d="m1192.45,15.4c-.6-.5-.9-1.2-.9-2.1s.3-1.7.9-2.2,1.4-.8,2.5-.8c1.2,0,2.2.2,3,.7v-.4c0-.7-.2-1.2-.6-1.5s-1-.5-1.9-.5c-.5,0-1,.1-1.5.1s-.9.2-1.3.4v-1.5c.3-.2.8-.3,1.4-.4s1.1-.2,1.7-.2c1.4,0,2.5.3,3.1.9.7.6,1,1.5,1,2.6v5.4h-1.7v-1c-.4.4-.8.7-1.3.9-.5.2-1.1.3-1.8.3-1.1.1-2-.1-2.6-.7Zm4.5-.9c.5-.2.8-.5,1-.9v-1.1c-.8-.5-1.6-.8-2.6-.8-.7,0-1.2.1-1.5.4-.3.3-.5.7-.5,1.2,0,1,.7,1.6,2,1.6.6-.1,1.1-.2,1.6-.4Z"/><path class="cls-1" d="m1201.45,19.3v-1.4c.3.1.7.2,1.1.2s.7-.1,1-.3.4-.5.6-1l.4-1-3.7-8.3h1.8l2.8,6.6,2.7-6.6h1.8l-3.8,9.5c-.4.9-.8,1.5-1.3,1.9s-1.1.6-1.9.6c-.6,0-1.1-.1-1.5-.2Z"/><path class="cls-1" d="m1219.55,16c-.7-.1-1.2-.3-1.7-.5v-1.5c1.1.5,2.3.8,3.6.8,1.1,0,1.9-.2,2.4-.6.5-.4.8-1,.8-1.7,0-.8-.3-1.3-.8-1.6s-1.4-.5-2.5-.5h-1.5v-1.5h1.4c.9,0,1.6-.2,2.2-.5.5-.4.8-.9.8-1.6s-.2-1.2-.7-1.6c-.4-.4-1.1-.5-1.9-.5-.7,0-1.3.1-1.8.2s-1.1.4-1.7.8v-1.5c1-.6,2.3-.9,3.7-.9s2.4.3,3.2.9c.7.6,1.1,1.5,1.1,2.6,0,.7-.2,1.2-.5,1.7s-.9.9-1.6,1.1c.8.2,1.4.5,1.9,1,.4.5.7,1.1.7,1.9,0,1.1-.4,2-1.2,2.7s-2,1-3.7,1c-.9,0-1.6-.1-2.2-.2Z"/><path class="cls-1" d="m1230.65,5.5l-2.7,1.9v-1.7l2.9-2.2h1.6v12.4h-1.8V5.5Z"/></svg>