<?xml version="1.0" encoding="utf-8"?>
<!-- Generator: Adobe Illustrator 27.9.2, SVG Export Plug-In . SVG Version: 6.00 Build 0)  -->
<svg version="1.1" id="Lager_1" xmlns="http://www.w3.org/2000/svg" xmlns:xlink="http://www.w3.org/1999/xlink" x="0px" y="0px"
	 viewBox="0 0 22.6 1239.1" style="enable-background:new 0 0 22.6 1239.1;" xml:space="preserve">
<style type="text/css">
	.st0{fill:#EFEFEF;}
</style>
<g>
	<path class="st0" d="M3.4,3.7c0.1-0.6,0.2-1.1,0.4-1.5h2.4c-0.4,0.9-0.6,2-0.6,3.2c0,0.8,0.2,1.3,0.5,1.7s0.8,0.5,1.4,0.5H8
		C7.7,7.3,7.5,6.9,7.3,6.5C7.2,6,7.1,5.5,7.1,5c0-0.9,0.2-1.7,0.6-2.4C8,1.9,8.6,1.3,9.3,1c0.7-0.4,1.5-0.6,2.4-0.6
		c0.9,0,1.7,0.2,2.4,0.6c0.7,0.4,1.2,0.9,1.6,1.6s0.6,1.5,0.6,2.4c0,0.6-0.1,1.1-0.3,1.6s-0.4,0.9-0.8,1.3h0.8v3.4H8
		c-1.5,0-2.7-0.5-3.5-1.4C3.7,8.9,3.3,7.4,3.3,5.4C3.3,4.9,3.3,4.3,3.4,3.7z M10.1,7c0.2,0.3,0.5,0.6,0.8,0.7h1.4
		c0.3-0.2,0.6-0.4,0.8-0.7s0.3-0.7,0.3-1.1c0-0.6-0.1-1-0.5-1.3c-0.3-0.3-0.7-0.5-1.3-0.5c-0.6,0-1,0.2-1.3,0.5
		C10,4.9,9.8,5.3,9.8,5.9C9.8,6.3,9.9,6.7,10.1,7z"/>
	<path class="st0" d="M15.9,12.6v3.4H15c0.3,0.3,0.6,0.8,0.8,1.4c0.2,0.6,0.3,1.2,0.3,1.9h-2.8c0-0.8-0.1-1.4-0.3-2s-0.5-1-0.9-1.2
		H7.4v-3.6L15.9,12.6L15.9,12.6z"/>
	<path class="st0" d="M7.8,19.9c0.5-0.7,1.2-1,2.2-1c1,0,1.7,0.3,2.2,1s0.8,1.6,0.8,2.8c0,0.4-0.1,0.9-0.1,1.3s-0.2,0.8-0.4,1.1h0.2
		c0.4,0,0.7-0.2,0.9-0.6s0.3-0.9,0.3-1.6c0-1-0.2-2-0.6-2.8h2.3c0.2,0.4,0.3,0.9,0.4,1.5c0.1,0.6,0.2,1.3,0.2,2
		c0,1.6-0.3,2.9-0.9,3.8c-0.6,0.9-1.5,1.3-2.7,1.3H7.4v-3.4H8c-0.3-0.3-0.5-0.7-0.7-1.2s-0.3-1-0.3-1.6C7.1,21.4,7.3,20.6,7.8,19.9z
		 M9.3,24.5c0.1,0.3,0.3,0.5,0.5,0.6h0.7c0.3-0.4,0.4-0.9,0.4-1.5c0-0.3-0.1-0.6-0.2-0.8s-0.4-0.3-0.7-0.3c-0.3,0-0.5,0.1-0.6,0.3
		s-0.2,0.4-0.2,0.8C9.1,24,9.2,24.2,9.3,24.5z"/>
	<path class="st0" d="M15.9,30v3.4h-0.8c0.4,0.4,0.6,0.8,0.8,1.3s0.3,1,0.3,1.6c0,1.2-0.3,2.1-0.9,2.7s-1.5,0.9-2.6,0.9H7.4v-3.6
		h4.8c0.4,0,0.7-0.1,0.9-0.3c0.2-0.2,0.3-0.5,0.3-0.8c0-0.7-0.3-1.2-1-1.6h-5V30H15.9z"/>
	<path class="st0" d="M7.7,43c0.4-0.7,0.9-1.2,1.6-1.6s1.5-0.6,2.4-0.6c0.9,0,1.7,0.2,2.4,0.6c0.7,0.4,1.2,0.9,1.6,1.6
		c0.4,0.7,0.6,1.5,0.6,2.4c0,0.5-0.1,1.1-0.2,1.5s-0.4,0.9-0.6,1.2h5.2v3.5H7.4v-3.4h0.8c-0.3-0.3-0.6-0.8-0.8-1.3s-0.3-1-0.3-1.6
		C7.1,44.5,7.3,43.7,7.7,43z M10.1,47.4c0.2,0.3,0.4,0.5,0.8,0.7h1.4c0.3-0.2,0.6-0.4,0.8-0.7s0.3-0.7,0.3-1.1c0-0.6-0.2-1-0.5-1.3
		c-0.3-0.3-0.8-0.5-1.3-0.5s-1,0.2-1.3,0.5s-0.5,0.8-0.5,1.3C9.8,46.7,9.9,47.1,10.1,47.4z"/>
	<path class="st0" d="M7.7,60.9c0.4-0.8,0.9-1.4,1.6-1.9c0.7-0.4,1.5-0.7,2.3-0.7c0.9,0,1.6,0.2,2.3,0.7s1.2,1.1,1.6,1.9
		c0.4,0.8,0.6,1.8,0.6,2.8s-0.2,2-0.6,2.9s-0.9,1.4-1.6,1.9s-1.5,0.7-2.3,0.7c-0.9,0-1.7-0.2-2.3-0.7c-0.7-0.4-1.2-1.1-1.6-1.9
		c-0.4-0.8-0.6-1.8-0.6-2.9S7.3,61.8,7.7,60.9z M10.3,65.1c0.3,0.3,0.8,0.5,1.3,0.5c0.5,0,1-0.2,1.3-0.5c0.3-0.3,0.5-0.8,0.5-1.3
		s-0.2-1-0.5-1.3S12.2,62,11.6,62c-0.5,0-1,0.2-1.3,0.5s-0.5,0.7-0.5,1.3S10,64.8,10.3,65.1z"/>
	<path class="st0" d="M15.9,70.2v3.4h-0.8c0.3,0.3,0.6,0.8,0.8,1.3s0.3,1,0.3,1.6c0,0.9-0.2,1.7-0.6,2.4c-0.4,0.7-0.9,1.2-1.6,1.6
		c-0.7,0.4-1.5,0.6-2.4,0.6c-0.9,0-1.7-0.2-2.4-0.6c-0.7-0.4-1.2-0.9-1.6-1.6s-0.6-1.5-0.6-2.4c0-0.5,0.1-1,0.2-1.5s0.4-0.9,0.6-1.2
		H3.5v-3.6H15.9z M10.3,76.9c0.3,0.3,0.8,0.5,1.3,0.5c0.6,0,1-0.2,1.3-0.5c0.3-0.3,0.5-0.8,0.5-1.3c0-0.4-0.1-0.8-0.3-1.1
		c-0.2-0.3-0.5-0.6-0.8-0.7h-1.4c-0.3,0.2-0.6,0.4-0.8,0.7s-0.3,0.7-0.3,1.1C9.8,76.1,10,76.6,10.3,76.9z"/>
	<path class="st0" d="M8.3,83.2c0.8-1,1.9-1.4,3.3-1.4c1.4,0,2.5,0.4,3.3,1.3c0.8,0.9,1.2,2.1,1.2,3.7c0,1-0.2,1.9-0.6,2.7
		c-0.4,0.7-0.9,1.3-1.6,1.7c-0.7,0.4-1.4,0.6-2.3,0.6h-1.1v-6.6c-0.8,0.3-1.1,1.1-1.1,2.6c0,0.6,0,1.2,0.1,1.8s0.2,1.1,0.4,1.5H7.7
		c-0.2-0.4-0.3-1-0.4-1.7c-0.1-0.7-0.2-1.4-0.2-2.1C7.1,85.5,7.5,84.2,8.3,83.2z M12.6,88.3c0.4-0.1,0.7-0.2,0.9-0.5
		s0.3-0.7,0.3-1.1s-0.1-0.8-0.3-1.1c-0.2-0.3-0.5-0.4-0.9-0.5C12.6,85.1,12.6,88.3,12.6,88.3z"/>
	<path class="st0" d="M15.9,92.8v3.4h-0.8c0.4,0.4,0.6,0.8,0.8,1.3s0.3,1,0.3,1.6c0,1.2-0.3,2.1-0.9,2.7s-1.5,0.9-2.6,0.9H7.4v-3.6
		h4.8c0.4,0,0.7-0.1,0.9-0.3c0.2-0.2,0.3-0.4,0.3-0.8c0-0.7-0.3-1.2-1-1.6h-5v-3.6H15.9z"/>
	<path class="st0" d="M15.9,104v3.6H7.4V104H15.9z M17.4,104.5c0.3-0.3,0.8-0.5,1.3-0.5c0.5,0,1,0.2,1.3,0.5s0.5,0.8,0.5,1.3
		c0,0.5-0.2,1-0.5,1.3s-0.8,0.5-1.3,0.5c-0.5,0-1-0.2-1.3-0.5c-0.4-0.4-0.5-0.8-0.5-1.3C16.8,105.3,17,104.8,17.4,104.5z"/>
	<path class="st0" d="M15.9,109.1v3.4h-0.8c0.4,0.4,0.6,0.8,0.8,1.3s0.3,1,0.3,1.6c0,1.2-0.3,2.1-0.9,2.7s-1.5,0.9-2.6,0.9H7.4v-3.6
		h4.8c0.4,0,0.7-0.1,0.9-0.3c0.2-0.2,0.3-0.4,0.3-0.8c0-0.7-0.3-1.2-1-1.6h-5v-3.6H15.9z"/>
	<path class="st0" d="M3.4,123.2c0.1-0.6,0.2-1.1,0.4-1.5h2.4c-0.4,0.9-0.6,2-0.6,3.2c0,0.8,0.2,1.3,0.5,1.7s0.8,0.5,1.4,0.5H8
		c-0.3-0.3-0.5-0.7-0.6-1.2c-0.2-0.5-0.2-1-0.2-1.5c0-0.9,0.2-1.7,0.6-2.4c0.4-0.7,0.9-1.2,1.6-1.6c0.7-0.4,1.5-0.6,2.4-0.6
		c0.9,0,1.7,0.2,2.4,0.6c0.7,0.4,1.2,0.9,1.6,1.6c0.4,0.7,0.6,1.5,0.6,2.4c0,0.6-0.1,1.1-0.3,1.6s-0.4,0.9-0.8,1.3h0.8v3.4H8
		c-1.5,0-2.7-0.5-3.5-1.4c-0.8-0.9-1.2-2.4-1.2-4.4C3.3,124.4,3.3,123.8,3.4,123.2z M10.1,126.5c0.2,0.3,0.5,0.6,0.8,0.7h1.4
		c0.3-0.2,0.6-0.4,0.8-0.7s0.3-0.7,0.3-1.1c0-0.6-0.1-1-0.5-1.3c-0.3-0.3-0.7-0.5-1.3-0.5c-0.6,0-1,0.2-1.3,0.5
		c-0.3,0.3-0.5,0.8-0.5,1.3C9.8,125.8,9.9,126.2,10.1,126.5z"/>
	<path class="st0" d="M15.9,138.3v1.7h-1.2c0.5,0.4,0.9,0.9,1.1,1.4c0.3,0.5,0.4,1,0.4,1.6c0,0.7-0.1,1.2-0.4,1.6
		c-0.2,0.4-0.6,0.7-1.1,0.9c0.5,0.4,0.8,0.8,1.1,1.4c0.2,0.6,0.3,1.1,0.3,1.7c0,1-0.3,1.8-0.8,2.2s-1.3,0.7-2.3,0.7H7.4v-1.7h5.4
		c0.7,0,1.2-0.1,1.5-0.4c0.3-0.3,0.4-0.7,0.4-1.3c0-0.9-0.4-1.6-1.2-2.2c-0.2,0-0.5,0-0.9,0H7.4v-1.7h5.4c0.7,0,1.2-0.1,1.5-0.4
		c0.3-0.2,0.4-0.7,0.4-1.3c0-0.9-0.5-1.7-1.5-2.4H7.4v-1.8L15.9,138.3L15.9,138.3z"/>
	<path class="st0" d="M7.9,154c0.5-0.6,1.2-0.9,2.1-0.9c0.9,0,1.7,0.3,2.2,0.9c0.5,0.6,0.8,1.4,0.8,2.6c0,1.2-0.2,2.2-0.7,3h0.4
		c0.7,0,1.2-0.2,1.5-0.6s0.5-1.1,0.5-1.9c0-0.5-0.1-1-0.1-1.5c-0.1-0.5-0.2-0.9-0.4-1.3h1.5c0.2,0.4,0.3,0.8,0.4,1.4
		c0.1,0.6,0.2,1.1,0.2,1.6c0,1.4-0.3,2.4-0.9,3.1c-0.6,0.7-1.5,1-2.6,1H7.4v-1.7h1c-0.4-0.4-0.7-0.8-0.9-1.3s-0.3-1.1-0.3-1.8
		C7.1,155.4,7.3,154.6,7.9,154z M8.8,158.4c0.2,0.5,0.5,0.8,0.9,1h1.1c0.5-0.8,0.8-1.6,0.8-2.6c0-0.7-0.1-1.2-0.4-1.5
		c-0.3-0.3-0.7-0.5-1.2-0.5c-1,0-1.6,0.7-1.6,2C8.5,157.4,8.6,158,8.8,158.4z"/>
	<path class="st0" d="M4,162.9h1.4c-0.1,0.3-0.2,0.7-0.2,1.1c0,0.4,0.1,0.7,0.3,1c0.2,0.2,0.5,0.4,1,0.6l1,0.4l8.3-3.7v1.9L9.3,167
		l6.6,2.6v1.9l-9.5-3.8c-0.9-0.4-1.5-0.8-1.9-1.3c-0.4-0.5-0.6-1.1-0.6-1.9C3.8,163.9,3.9,163.3,4,162.9z"/>
	<path class="st0" d="M7.3,181c0.1-0.7,0.3-1.2,0.5-1.7h1.5c-0.5,1.1-0.8,2.3-0.8,3.6c0,1.1,0.2,1.9,0.6,2.4c0.4,0.5,1,0.8,1.7,0.8
		c0.8,0,1.3-0.3,1.6-0.8c0.3-0.5,0.5-1.4,0.5-2.5v-1.5h1.5v1.4c0,0.9,0.2,1.6,0.5,2.1c0.4,0.5,0.9,0.8,1.6,0.8
		c0.7,0,1.2-0.2,1.6-0.7s0.5-1.1,0.5-1.9c0-0.7-0.1-1.3-0.2-1.8s-0.4-1.1-0.8-1.6h1.5c0.6,1,0.9,2.3,0.9,3.7c0,1.4-0.3,2.4-0.9,3.2
		c-0.6,0.7-1.5,1.1-2.6,1.1c-0.7,0-1.2-0.2-1.7-0.5s-0.9-0.9-1.1-1.6c-0.2,0.8-0.5,1.4-1,1.9s-1.1,0.6-1.9,0.6c-1.1,0-2-0.4-2.7-1.1
		c-0.7-0.8-1-2-1-3.7C7.1,182.4,7.2,181.7,7.3,181z"/>
	<path class="st0" d="M17.8,192.2l-1.9-2.7h1.7l2.2,2.9v1.6H7.4v-1.8H17.8z"/>
	<path class="st0" d="M3.4,210.2c0.1-0.6,0.2-1.1,0.4-1.5h2.4c-0.4,0.9-0.6,2-0.6,3.2c0,0.8,0.2,1.3,0.5,1.7s0.8,0.5,1.4,0.5H8
		c-0.3-0.3-0.5-0.7-0.6-1.2c-0.2-0.5-0.2-1-0.2-1.5c0-0.9,0.2-1.7,0.6-2.4c0.4-0.7,0.9-1.2,1.6-1.6c0.7-0.4,1.5-0.6,2.4-0.6
		c0.9,0,1.7,0.2,2.4,0.6c0.7,0.4,1.2,0.9,1.6,1.6s0.6,1.5,0.6,2.4c0,0.6-0.1,1.1-0.3,1.6s-0.4,0.9-0.8,1.3h0.8v3.4H8
		c-1.5,0-2.7-0.5-3.5-1.4c-0.8-0.9-1.2-2.4-1.2-4.4C3.3,211.4,3.3,210.8,3.4,210.2z M10.1,213.4c0.2,0.3,0.5,0.6,0.8,0.7h1.4
		c0.3-0.1,0.6-0.4,0.8-0.7s0.3-0.7,0.3-1.1c0-0.6-0.1-1-0.5-1.3c-0.3-0.3-0.7-0.5-1.3-0.5c-0.6,0-1,0.2-1.3,0.5
		c-0.3,0.3-0.5,0.8-0.5,1.3C9.8,212.8,9.9,213.1,10.1,213.4z"/>
	<path class="st0" d="M15.9,219.1v3.4H15c0.3,0.3,0.6,0.8,0.8,1.4c0.2,0.6,0.3,1.2,0.3,1.9h-2.8c0-0.8-0.1-1.4-0.3-2s-0.5-1-0.9-1.2
		H7.4v-3.6L15.9,219.1L15.9,219.1z"/>
	<path class="st0" d="M7.8,226.4c0.5-0.7,1.2-1,2.2-1c1,0,1.7,0.3,2.2,1s0.8,1.6,0.8,2.8c0,0.4-0.1,0.9-0.1,1.3s-0.2,0.8-0.4,1.1
		h0.2c0.4,0,0.7-0.2,0.9-0.6s0.3-0.9,0.3-1.6c0-1-0.2-2-0.6-2.8h2.3c0.2,0.4,0.3,0.9,0.4,1.5s0.2,1.3,0.2,2c0,1.6-0.3,2.9-0.9,3.8
		c-0.6,0.9-1.5,1.3-2.7,1.3H7.4v-3.4H8c-0.3-0.3-0.5-0.7-0.7-1.2s-0.3-1.1-0.3-1.6C7.1,227.9,7.3,227,7.8,226.4z M9.3,231
		c0.1,0.3,0.3,0.5,0.5,0.6h0.7c0.3-0.4,0.4-0.9,0.4-1.5c0-0.3-0.1-0.6-0.2-0.8s-0.4-0.3-0.6-0.3c-0.3,0-0.5,0.1-0.6,0.3
		c-0.1,0.2-0.2,0.4-0.2,0.8C9.1,230.4,9.2,230.7,9.3,231z"/>
	<path class="st0" d="M15.9,236.5v3.4h-0.8c0.4,0.4,0.6,0.8,0.8,1.3s0.3,1,0.3,1.6c0,1.2-0.3,2.1-0.9,2.7s-1.5,0.9-2.6,0.9H7.4v-3.6
		h4.8c0.4,0,0.7-0.1,0.9-0.3c0.2-0.2,0.3-0.4,0.3-0.8c0-0.7-0.3-1.2-1-1.6h-5v-3.6L15.9,236.5L15.9,236.5z"/>
	<path class="st0" d="M7.7,249.4c0.4-0.7,0.9-1.2,1.6-1.6s1.5-0.6,2.4-0.6c0.9,0,1.7,0.2,2.4,0.6s1.2,0.9,1.6,1.6
		c0.4,0.7,0.6,1.5,0.6,2.4c0,0.5-0.1,1.1-0.2,1.5s-0.4,0.9-0.6,1.2h5.2v3.6H7.4v-3.4h0.8c-0.3-0.4-0.6-0.8-0.8-1.3s-0.3-1-0.3-1.6
		C7.1,250.9,7.3,250.1,7.7,249.4z M10.1,253.9c0.2,0.3,0.4,0.6,0.8,0.7h1.4c0.3-0.1,0.6-0.4,0.8-0.7s0.3-0.7,0.3-1.1
		c0-0.6-0.2-1-0.5-1.3c-0.3-0.3-0.8-0.5-1.3-0.5s-1,0.2-1.3,0.5s-0.5,0.8-0.5,1.3C9.8,253.2,9.9,253.6,10.1,253.9z"/>
	<path class="st0" d="M7.7,267.4c0.4-0.8,0.9-1.4,1.6-1.9c0.7-0.4,1.5-0.7,2.3-0.7c0.9,0,1.6,0.2,2.3,0.7s1.2,1.1,1.6,1.9
		c0.4,0.8,0.6,1.8,0.6,2.9s-0.2,2-0.6,2.9c-0.4,0.8-0.9,1.4-1.6,1.9s-1.5,0.7-2.3,0.7c-0.9,0-1.7-0.2-2.3-0.7
		c-0.7-0.4-1.2-1.1-1.6-1.9c-0.4-0.8-0.6-1.8-0.6-2.9S7.3,268.2,7.7,267.4z M10.3,271.5c0.3,0.3,0.8,0.5,1.3,0.5
		c0.5,0,1-0.2,1.3-0.5c0.3-0.3,0.5-0.8,0.5-1.3s-0.2-1-0.5-1.3s-0.7-0.5-1.3-0.5c-0.5,0-1,0.2-1.3,0.5s-0.5,0.7-0.5,1.3
		S10,271.2,10.3,271.5z"/>
	<path class="st0" d="M15.9,276.7v3.4h-0.8c0.3,0.4,0.6,0.8,0.8,1.3s0.3,1,0.3,1.6c0,0.9-0.2,1.7-0.6,2.4c-0.4,0.7-0.9,1.2-1.6,1.6
		c-0.7,0.4-1.5,0.6-2.4,0.6c-0.9,0-1.7-0.2-2.4-0.6s-1.2-0.9-1.6-1.6s-0.6-1.5-0.6-2.4c0-0.5,0.1-1,0.2-1.5s0.4-0.9,0.6-1.2H3.5
		v-3.5H15.9z M10.3,283.4c0.3,0.3,0.8,0.5,1.3,0.5c0.6,0,1-0.2,1.3-0.5s0.5-0.8,0.5-1.3c0-0.4-0.1-0.8-0.3-1.1
		c-0.2-0.3-0.5-0.5-0.8-0.7h-1.4c-0.3,0.1-0.6,0.4-0.8,0.7s-0.3,0.7-0.3,1.1C9.8,282.6,10,283,10.3,283.4z"/>
	<path class="st0" d="M8.3,289.7c0.8-1,1.9-1.4,3.3-1.4c1.4,0,2.5,0.4,3.3,1.3c0.8,0.9,1.2,2.1,1.2,3.7c0,1-0.2,1.9-0.6,2.7
		c-0.4,0.7-0.9,1.3-1.6,1.7c-0.7,0.4-1.4,0.6-2.3,0.6h-1.1v-6.6c-0.8,0.3-1.1,1.1-1.1,2.6c0,0.6,0,1.1,0.1,1.8s0.2,1.1,0.4,1.5H7.7
		c-0.2-0.5-0.3-1-0.4-1.7c-0.1-0.7-0.2-1.4-0.2-2.1C7.1,292,7.5,290.6,8.3,289.7z M12.6,294.8c0.4-0.1,0.7-0.2,0.9-0.5
		s0.3-0.6,0.3-1.1s-0.1-0.8-0.3-1.1s-0.5-0.4-0.9-0.5C12.6,291.6,12.6,294.8,12.6,294.8z"/>
	<path class="st0" d="M15.9,299.2v3.4h-0.8c0.4,0.4,0.6,0.8,0.8,1.3s0.3,1,0.3,1.6c0,1.2-0.3,2.1-0.9,2.7s-1.5,0.9-2.6,0.9H7.4v-3.6
		h4.8c0.4,0,0.7-0.1,0.9-0.3c0.2-0.2,0.3-0.5,0.3-0.8c0-0.7-0.3-1.3-1-1.6h-5v-3.5L15.9,299.2L15.9,299.2z"/>
	<path class="st0" d="M15.9,310.5v3.5H7.4v-3.5H15.9z M17.4,310.9c0.3-0.4,0.8-0.5,1.3-0.5c0.5,0,1,0.2,1.3,0.5
		c0.4,0.4,0.5,0.8,0.5,1.3c0,0.5-0.2,1-0.5,1.3s-0.8,0.5-1.3,0.5c-0.5,0-1-0.2-1.3-0.5c-0.4-0.4-0.5-0.8-0.5-1.3
		C16.8,311.7,17,311.3,17.4,310.9z"/>
	<path class="st0" d="M15.9,315.5v3.4h-0.8c0.4,0.4,0.6,0.8,0.8,1.3s0.3,1,0.3,1.6c0,1.2-0.3,2.1-0.9,2.7s-1.5,0.9-2.6,0.9H7.4v-3.6
		h4.8c0.4,0,0.7-0.1,0.9-0.3c0.2-0.2,0.3-0.5,0.3-0.8c0-0.7-0.3-1.2-1-1.6h-5v-3.5L15.9,315.5L15.9,315.5z"/>
	<path class="st0" d="M3.4,329.7c0.1-0.6,0.2-1.1,0.4-1.5h2.4c-0.4,0.9-0.6,2-0.6,3.2c0,0.8,0.2,1.3,0.5,1.7
		c0.3,0.4,0.8,0.5,1.4,0.5H8c-0.3-0.3-0.5-0.7-0.6-1.2c-0.2-0.5-0.2-1-0.2-1.5c0-0.9,0.2-1.7,0.6-2.4c0.4-0.7,0.9-1.2,1.6-1.6
		s1.5-0.6,2.4-0.6c0.9,0,1.7,0.2,2.4,0.6s1.2,0.9,1.6,1.6s0.6,1.5,0.6,2.4c0,0.6-0.1,1.1-0.3,1.6s-0.4,0.9-0.8,1.3h0.8v3.4H8
		c-1.5,0-2.7-0.5-3.5-1.4s-1.2-2.4-1.2-4.4C3.3,330.8,3.3,330.3,3.4,329.7z M10.1,332.9c0.2,0.3,0.5,0.5,0.8,0.7h1.4
		c0.3-0.1,0.6-0.4,0.8-0.7s0.3-0.7,0.3-1.1c0-0.6-0.1-1-0.5-1.3c-0.3-0.3-0.7-0.5-1.3-0.5c-0.6,0-1,0.2-1.3,0.5
		c-0.3,0.3-0.5,0.8-0.5,1.3C9.8,332.2,9.9,332.6,10.1,332.9z"/>
	<path class="st0" d="M15.9,344.7v1.7h-1.2c0.5,0.4,0.9,0.9,1.1,1.4c0.3,0.5,0.4,1,0.4,1.6c0,0.7-0.1,1.2-0.4,1.6s-0.6,0.7-1.1,0.9
		c0.5,0.4,0.8,0.8,1.1,1.4c0.2,0.5,0.3,1.1,0.3,1.7c0,1-0.3,1.8-0.8,2.2s-1.3,0.7-2.3,0.7H7.4v-1.7h5.4c0.7,0,1.2-0.1,1.5-0.4
		c0.3-0.3,0.4-0.7,0.4-1.3c0-0.9-0.4-1.6-1.2-2.2c-0.2,0-0.5,0-0.9,0H7.4v-1.7h5.4c0.7,0,1.2-0.1,1.5-0.4c0.3-0.2,0.4-0.7,0.4-1.3
		c0-0.9-0.5-1.7-1.5-2.4H7.4v-1.8L15.9,344.7L15.9,344.7z"/>
	<path class="st0" d="M7.9,360.4c0.5-0.6,1.2-0.9,2.1-0.9c0.9,0,1.7,0.3,2.2,0.9c0.5,0.6,0.8,1.5,0.8,2.5c0,1.2-0.2,2.2-0.7,3h0.4
		c0.7,0,1.2-0.2,1.5-0.6c0.3-0.4,0.5-1,0.5-1.9c0-0.5-0.1-1-0.1-1.5s-0.2-0.9-0.4-1.3h1.5c0.2,0.4,0.3,0.8,0.4,1.4
		c0.1,0.6,0.2,1.1,0.2,1.6c0,1.4-0.3,2.5-0.9,3.1s-1.5,1-2.6,1H7.4V366h1c-0.4-0.4-0.7-0.8-0.9-1.3c-0.2-0.5-0.3-1.1-0.3-1.8
		C7.1,361.9,7.3,361,7.9,360.4z M8.8,364.9c0.2,0.5,0.5,0.8,0.9,1h1.1c0.5-0.8,0.8-1.6,0.8-2.6c0-0.7-0.1-1.2-0.4-1.5
		c-0.3-0.3-0.7-0.5-1.2-0.5c-1,0-1.6,0.7-1.6,2C8.5,363.9,8.6,364.4,8.8,364.9z"/>
	<path class="st0" d="M4,369.4h1.4c-0.1,0.3-0.2,0.7-0.2,1.1c0,0.4,0.1,0.7,0.3,1c0.2,0.2,0.5,0.5,1,0.6l1,0.4l8.3-3.7v1.9l-6.6,2.8
		l6.6,2.6v1.9l-9.5-3.8c-0.9-0.4-1.5-0.8-1.9-1.3s-0.6-1.1-0.6-1.9C3.8,370.3,3.9,369.8,4,369.4z"/>
	<path class="st0" d="M7.3,387.5c0.1-0.7,0.3-1.2,0.5-1.7h1.5c-0.5,1.1-0.8,2.3-0.8,3.5c0,1.1,0.2,1.9,0.6,2.4s1,0.8,1.7,0.8
		c0.8,0,1.3-0.3,1.6-0.8c0.3-0.5,0.5-1.4,0.5-2.5v-1.5h1.5v1.4c0,0.9,0.2,1.6,0.5,2.1c0.4,0.5,0.9,0.8,1.6,0.8
		c0.7,0,1.2-0.2,1.6-0.7s0.5-1.1,0.5-2c0-0.7-0.1-1.3-0.2-1.8s-0.4-1.1-0.8-1.6h1.5c0.6,1,0.9,2.3,0.9,3.7c0,1.4-0.3,2.4-0.9,3.2
		c-0.6,0.7-1.5,1.1-2.6,1.1c-0.7,0-1.2-0.2-1.7-0.5s-0.9-0.9-1.1-1.6c-0.2,0.8-0.5,1.4-1,1.9c-0.5,0.4-1.1,0.6-1.9,0.6
		c-1.1,0-2-0.4-2.7-1.1s-1-2-1-3.7C7.1,388.8,7.2,388.1,7.3,387.5z"/>
	<path class="st0" d="M17.8,398.6l-1.9-2.7h1.7l2.2,2.9v1.6H7.4v-1.8H17.8z"/>
	<path class="st0" d="M3.4,416.6c0.1-0.6,0.2-1.1,0.4-1.5h2.4c-0.4,0.9-0.6,2-0.6,3.2c0,0.8,0.2,1.3,0.5,1.7
		c0.3,0.4,0.8,0.5,1.4,0.5H8c-0.3-0.3-0.5-0.7-0.6-1.2c-0.2-0.5-0.2-1-0.2-1.5c0-0.9,0.2-1.7,0.6-2.4c0.4-0.7,0.9-1.2,1.6-1.6
		s1.5-0.6,2.4-0.6c0.9,0,1.7,0.2,2.4,0.6s1.2,0.9,1.6,1.6s0.6,1.5,0.6,2.4c0,0.6-0.1,1.1-0.3,1.6s-0.4,0.9-0.8,1.3h0.8v3.4H8
		c-1.5,0-2.7-0.5-3.5-1.4s-1.2-2.4-1.2-4.4C3.3,417.8,3.3,417.2,3.4,416.6z M10.1,419.9c0.2,0.3,0.5,0.5,0.8,0.7h1.4
		c0.3-0.1,0.6-0.4,0.8-0.7s0.3-0.7,0.3-1.1c0-0.6-0.1-1-0.5-1.3c-0.3-0.3-0.7-0.5-1.3-0.5c-0.6,0-1,0.2-1.3,0.5
		c-0.3,0.3-0.5,0.8-0.5,1.3C9.8,419.2,9.9,419.6,10.1,419.9z"/>
	<path class="st0" d="M15.9,425.5v3.4H15c0.3,0.3,0.6,0.8,0.8,1.4c0.2,0.6,0.3,1.2,0.3,1.9h-2.8c0-0.8-0.1-1.4-0.3-2s-0.5-1-0.9-1.2
		H7.4v-3.5L15.9,425.5L15.9,425.5z"/>
	<path class="st0" d="M7.8,432.8c0.5-0.7,1.2-1,2.2-1c1,0,1.7,0.3,2.2,1c0.5,0.6,0.8,1.6,0.8,2.8c0,0.4-0.1,0.9-0.1,1.3
		c-0.1,0.5-0.2,0.8-0.4,1.1h0.2c0.4,0,0.7-0.2,0.9-0.6s0.3-0.9,0.3-1.6c0-1-0.2-2-0.6-2.8h2.3c0.2,0.4,0.3,0.9,0.4,1.5
		s0.2,1.3,0.2,2c0,1.6-0.3,2.9-0.9,3.8c-0.6,0.9-1.5,1.3-2.7,1.3H7.4v-3.4H8c-0.3-0.3-0.5-0.7-0.7-1.2s-0.3-1-0.3-1.6
		C7.1,434.4,7.3,433.5,7.8,432.8z M9.3,437.4c0.1,0.3,0.3,0.5,0.5,0.6h0.7c0.3-0.4,0.4-0.9,0.4-1.5c0-0.3-0.1-0.6-0.2-0.8
		s-0.4-0.3-0.6-0.3c-0.3,0-0.5,0.1-0.6,0.3s-0.2,0.4-0.2,0.8C9.1,436.9,9.2,437.2,9.3,437.4z"/>
	<path class="st0" d="M15.9,443v3.4h-0.8c0.4,0.4,0.6,0.8,0.8,1.3s0.3,1,0.3,1.6c0,1.2-0.3,2.1-0.9,2.7s-1.5,0.9-2.6,0.9H7.4v-3.6
		h4.8c0.4,0,0.7-0.1,0.9-0.3c0.2-0.2,0.3-0.5,0.3-0.8c0-0.7-0.3-1.2-1-1.6h-5v-3.5L15.9,443L15.9,443z"/>
	<path class="st0" d="M7.7,455.9c0.4-0.7,0.9-1.2,1.6-1.6s1.5-0.6,2.4-0.6c0.9,0,1.7,0.2,2.4,0.6s1.2,0.9,1.6,1.6
		c0.4,0.7,0.6,1.5,0.6,2.4c0,0.5-0.1,1.1-0.2,1.5s-0.4,0.9-0.6,1.2h5.2v3.5H7.4v-3.4h0.8c-0.3-0.4-0.6-0.8-0.8-1.3s-0.3-1-0.3-1.6
		C7.1,457.4,7.3,456.6,7.7,455.9z M10.1,460.3c0.2,0.3,0.4,0.5,0.8,0.7h1.4c0.3-0.1,0.6-0.4,0.8-0.7s0.3-0.7,0.3-1.1
		c0-0.6-0.2-1-0.5-1.3c-0.3-0.3-0.8-0.5-1.3-0.5s-1,0.2-1.3,0.5s-0.5,0.8-0.5,1.3C9.8,459.6,9.9,460,10.1,460.3z"/>
	<path class="st0" d="M7.7,473.8c0.4-0.8,0.9-1.4,1.6-1.9c0.7-0.4,1.5-0.7,2.3-0.7c0.9,0,1.6,0.2,2.3,0.7s1.2,1.1,1.6,1.9
		c0.4,0.8,0.6,1.8,0.6,2.9s-0.2,2-0.6,2.9c-0.4,0.8-0.9,1.4-1.6,1.9s-1.5,0.7-2.3,0.7c-0.9,0-1.7-0.2-2.3-0.7
		c-0.7-0.4-1.2-1.1-1.6-1.9c-0.4-0.8-0.6-1.8-0.6-2.9C7.1,475.6,7.3,474.7,7.7,473.8z M10.3,478c0.3,0.3,0.8,0.5,1.3,0.5
		c0.5,0,1-0.2,1.3-0.5c0.3-0.3,0.5-0.8,0.5-1.3s-0.2-1-0.5-1.3s-0.7-0.5-1.3-0.5c-0.5,0-1,0.2-1.3,0.5s-0.5,0.7-0.5,1.3
		C9.8,477.2,10,477.6,10.3,478z"/>
	<path class="st0" d="M15.9,483.2v3.4h-0.8c0.3,0.4,0.6,0.8,0.8,1.3s0.3,1,0.3,1.6c0,0.9-0.2,1.7-0.6,2.4c-0.4,0.7-0.9,1.2-1.6,1.6
		s-1.5,0.6-2.4,0.6c-0.9,0-1.7-0.2-2.4-0.6s-1.2-0.9-1.6-1.6s-0.6-1.5-0.6-2.4c0-0.5,0.1-1,0.2-1.5s0.4-0.9,0.6-1.2H3.5v-3.5H15.9z
		 M10.3,489.8c0.3,0.3,0.8,0.5,1.3,0.5c0.6,0,1-0.2,1.3-0.5s0.5-0.8,0.5-1.3c0-0.4-0.1-0.8-0.3-1.1s-0.5-0.5-0.8-0.7h-1.4
		c-0.3,0.1-0.6,0.4-0.8,0.7s-0.3,0.7-0.3,1.1C9.8,489,10,489.5,10.3,489.8z"/>
	<path class="st0" d="M8.3,496.1c0.8-1,1.9-1.4,3.3-1.4c1.4,0,2.5,0.4,3.3,1.3c0.8,0.9,1.2,2.1,1.2,3.7c0,1-0.2,1.9-0.6,2.7
		c-0.4,0.7-0.9,1.3-1.6,1.7c-0.7,0.4-1.4,0.6-2.3,0.6h-1.1V498c-0.8,0.3-1.1,1.1-1.1,2.6c0,0.6,0,1.1,0.1,1.8s0.2,1.1,0.4,1.5H7.7
		c-0.2-0.5-0.3-1-0.4-1.7s-0.2-1.4-0.2-2.1C7.1,498.4,7.5,497.1,8.3,496.1z M12.6,501.3c0.4-0.1,0.7-0.2,0.9-0.5s0.3-0.6,0.3-1.1
		s-0.1-0.8-0.3-1.1s-0.5-0.4-0.9-0.5C12.6,498,12.6,501.3,12.6,501.3z"/>
	<path class="st0" d="M15.9,505.7v3.4h-0.8c0.4,0.4,0.6,0.8,0.8,1.3s0.3,1,0.3,1.6c0,1.2-0.3,2.1-0.9,2.7s-1.5,0.9-2.6,0.9H7.4v-3.6
		h4.8c0.4,0,0.7-0.1,0.9-0.3c0.2-0.2,0.3-0.5,0.3-0.8c0-0.7-0.3-1.2-1-1.6h-5v-3.5L15.9,505.7L15.9,505.7z"/>
	<path class="st0" d="M15.9,516.9v3.5H7.4v-3.5H15.9z M17.4,517.4c0.3-0.3,0.8-0.5,1.3-0.5c0.5,0,1,0.2,1.3,0.5
		c0.4,0.4,0.5,0.8,0.5,1.3c0,0.5-0.2,1-0.5,1.3s-0.8,0.5-1.3,0.5c-0.5,0-1-0.2-1.3-0.5c-0.4-0.4-0.5-0.8-0.5-1.3
		C16.8,518.2,17,517.7,17.4,517.4z"/>
	<path class="st0" d="M15.9,522v3.4h-0.8c0.4,0.4,0.6,0.8,0.8,1.3s0.3,1,0.3,1.6c0,1.2-0.3,2.1-0.9,2.7s-1.5,0.9-2.6,0.9H7.4v-3.6
		h4.8c0.4,0,0.7-0.1,0.9-0.3c0.2-0.2,0.3-0.5,0.3-0.8c0-0.7-0.3-1.2-1-1.6h-5V522H15.9z"/>
	<path class="st0" d="M3.4,536.1c0.1-0.6,0.2-1.1,0.4-1.5h2.4c-0.4,0.9-0.6,2-0.6,3.2c0,0.8,0.2,1.3,0.5,1.7s0.8,0.5,1.4,0.5H8
		c-0.3-0.3-0.5-0.7-0.6-1.2c-0.2-0.5-0.2-1-0.2-1.5c0-0.9,0.2-1.7,0.6-2.4c0.4-0.7,0.9-1.2,1.6-1.6s1.5-0.6,2.4-0.6
		c0.9,0,1.7,0.2,2.4,0.6s1.2,0.9,1.6,1.6s0.6,1.5,0.6,2.4c0,0.6-0.1,1.1-0.3,1.6s-0.4,0.9-0.8,1.3h0.8v3.4H8c-1.5,0-2.7-0.5-3.5-1.4
		s-1.2-2.4-1.2-4.4C3.3,537.3,3.3,536.7,3.4,536.1z M10.1,539.4c0.2,0.3,0.5,0.5,0.8,0.7h1.4c0.3-0.2,0.6-0.4,0.8-0.7
		s0.3-0.7,0.3-1.1c0-0.6-0.1-1-0.5-1.3c-0.3-0.3-0.7-0.5-1.3-0.5c-0.6,0-1,0.2-1.3,0.5c-0.3,0.3-0.5,0.8-0.5,1.3
		C9.8,538.7,9.9,539,10.1,539.4z"/>
	<path class="st0" d="M15.9,551.2v1.7h-1.2c0.5,0.4,0.9,0.9,1.1,1.4c0.3,0.5,0.4,1,0.4,1.6c0,0.7-0.1,1.2-0.4,1.6s-0.6,0.7-1.1,0.9
		c0.5,0.4,0.8,0.8,1.1,1.4c0.2,0.5,0.3,1.1,0.3,1.7c0,1-0.3,1.8-0.8,2.2s-1.3,0.7-2.3,0.7H7.4v-1.7h5.4c0.7,0,1.2-0.1,1.5-0.4
		c0.3-0.3,0.4-0.7,0.4-1.3c0-0.9-0.4-1.6-1.2-2.2c-0.2,0-0.5,0-0.9,0H7.4V557h5.4c0.7,0,1.2-0.1,1.5-0.4c0.3-0.2,0.4-0.7,0.4-1.3
		c0-0.9-0.5-1.7-1.5-2.4H7.4v-1.8L15.9,551.2L15.9,551.2z"/>
	<path class="st0" d="M7.9,566.9c0.5-0.6,1.2-0.9,2.1-0.9c0.9,0,1.7,0.3,2.2,0.9c0.5,0.6,0.8,1.5,0.8,2.5c0,1.2-0.2,2.2-0.7,3h0.4
		c0.7,0,1.2-0.2,1.5-0.6c0.3-0.4,0.5-1,0.5-1.9c0-0.5-0.1-1-0.1-1.5s-0.2-0.9-0.4-1.3h1.5c0.2,0.3,0.3,0.8,0.4,1.4
		c0.1,0.6,0.2,1.1,0.2,1.7c0,1.4-0.3,2.5-0.9,3.1s-1.5,1-2.6,1H7.4v-1.7h1c-0.4-0.4-0.7-0.8-0.9-1.3c-0.2-0.5-0.3-1.1-0.3-1.8
		C7.1,568.3,7.3,567.5,7.9,566.9z M8.8,571.3c0.2,0.5,0.5,0.8,0.9,1h1.1c0.5-0.8,0.8-1.6,0.8-2.6c0-0.7-0.1-1.2-0.4-1.5
		c-0.3-0.3-0.7-0.5-1.2-0.5c-1,0-1.6,0.7-1.6,2C8.5,570.3,8.6,570.9,8.8,571.3z"/>
	<path class="st0" d="M4,575.8h1.4c-0.1,0.3-0.2,0.7-0.2,1.1c0,0.4,0.1,0.7,0.3,1s0.5,0.5,1,0.6l1,0.4l8.3-3.7v1.8l-6.6,2.8l6.6,2.7
		v1.8l-9.5-3.8c-0.9-0.4-1.5-0.8-1.9-1.3s-0.6-1.1-0.6-1.9C3.8,576.8,3.9,576.2,4,575.8z"/>
	<path class="st0" d="M7.3,593.9c0.1-0.7,0.3-1.2,0.5-1.7h1.5c-0.5,1.1-0.8,2.3-0.8,3.5c0,1.1,0.2,1.9,0.6,2.4s1,0.8,1.7,0.8
		c0.8,0,1.3-0.3,1.6-0.8c0.3-0.5,0.5-1.4,0.5-2.5v-1.5h1.5v1.4c0,0.9,0.2,1.6,0.5,2.2c0.4,0.5,0.9,0.8,1.6,0.8
		c0.7,0,1.2-0.2,1.6-0.7s0.5-1.1,0.5-2c0-0.7-0.1-1.3-0.2-1.8c-0.1-0.5-0.4-1.1-0.8-1.7h1.5c0.6,1,0.9,2.3,0.9,3.7
		c0,1.4-0.3,2.4-0.9,3.2c-0.6,0.7-1.5,1.1-2.6,1.1c-0.7,0-1.2-0.2-1.7-0.5c-0.5-0.3-0.9-0.9-1.1-1.6c-0.2,0.8-0.5,1.4-1,1.9
		c-0.5,0.4-1.1,0.7-1.9,0.7c-1.1,0-2-0.4-2.7-1.2s-1-2-1-3.7C7.1,595.3,7.2,594.6,7.3,593.9z"/>
	<path class="st0" d="M17.8,605.1l-1.9-2.7h1.7l2.2,2.9v1.6H7.4v-1.8H17.8z"/>
</g>
<g>
	<path class="st0" d="M3.4,623.1c0.1-0.6,0.2-1.1,0.4-1.5h2.4c-0.4,0.9-0.6,2-0.6,3.2c0,0.8,0.2,1.3,0.5,1.7s0.8,0.5,1.4,0.5H8
		c-0.3-0.3-0.5-0.7-0.6-1.2c-0.2-0.5-0.2-1-0.2-1.5c0-0.9,0.2-1.7,0.6-2.4c0.4-0.7,0.9-1.2,1.6-1.6c0.7-0.4,1.5-0.6,2.4-0.6
		c0.9,0,1.7,0.2,2.4,0.6c0.7,0.4,1.2,0.9,1.6,1.6s0.6,1.5,0.6,2.4c0,0.6-0.1,1.1-0.3,1.6s-0.4,0.9-0.8,1.3h0.8v3.4H8
		c-1.5,0-2.7-0.5-3.5-1.4c-0.8-0.9-1.2-2.4-1.2-4.4C3.3,624.2,3.3,623.7,3.4,623.1z M10.1,626.3c0.2,0.3,0.5,0.5,0.8,0.7h1.4
		c0.3-0.2,0.6-0.4,0.8-0.7s0.3-0.7,0.3-1.1c0-0.6-0.1-1-0.5-1.3c-0.3-0.3-0.7-0.5-1.3-0.5c-0.6,0-1,0.2-1.3,0.5
		c-0.3,0.3-0.5,0.8-0.5,1.3C9.8,625.7,9.9,626,10.1,626.3z"/>
	<path class="st0" d="M15.9,632v3.4H15c0.3,0.3,0.6,0.8,0.8,1.4c0.2,0.6,0.3,1.2,0.3,1.9h-2.8c0-0.8-0.1-1.4-0.3-2s-0.5-1-0.9-1.2
		H7.4V632L15.9,632L15.9,632z"/>
	<path class="st0" d="M7.8,639.3c0.5-0.7,1.2-1,2.2-1c1,0,1.7,0.3,2.2,1c0.5,0.6,0.8,1.6,0.8,2.8c0,0.4-0.1,0.9-0.1,1.3
		c-0.1,0.5-0.2,0.8-0.4,1.1h0.2c0.4,0,0.7-0.2,0.9-0.6c0.2-0.4,0.3-0.9,0.3-1.6c0-1-0.2-2-0.6-2.8h2.3c0.2,0.4,0.3,0.9,0.4,1.5
		s0.2,1.3,0.2,2c0,1.7-0.3,2.9-0.9,3.8c-0.6,0.9-1.5,1.3-2.7,1.3H7.4v-3.3H8c-0.3-0.3-0.5-0.7-0.7-1.2s-0.3-1-0.3-1.6
		C7.1,640.8,7.3,639.9,7.8,639.3z M9.3,643.9c0.1,0.3,0.3,0.5,0.5,0.6h0.7c0.3-0.4,0.4-0.9,0.4-1.5c0-0.3-0.1-0.6-0.2-0.8
		S10.3,642,10,642c-0.3,0-0.5,0.1-0.6,0.3c-0.1,0.2-0.2,0.4-0.2,0.8C9.1,643.3,9.2,643.6,9.3,643.9z"/>
	<path class="st0" d="M15.9,649.4v3.4h-0.8c0.4,0.4,0.6,0.8,0.8,1.3s0.3,1,0.3,1.6c0,1.2-0.3,2.1-0.9,2.7s-1.5,0.9-2.6,0.9H7.4v-3.6
		h4.8c0.4,0,0.7-0.1,0.9-0.3c0.2-0.2,0.3-0.5,0.3-0.8c0-0.7-0.3-1.2-1-1.6h-5v-3.5H15.9z"/>
	<path class="st0" d="M7.7,662.3c0.4-0.7,0.9-1.2,1.6-1.6s1.5-0.6,2.4-0.6c0.9,0,1.7,0.2,2.4,0.6s1.2,0.9,1.6,1.6
		c0.4,0.7,0.6,1.5,0.6,2.4c0,0.5-0.1,1.1-0.2,1.5c-0.2,0.5-0.4,0.9-0.6,1.2h5.2v3.5H7.4v-3.4h0.8c-0.3-0.4-0.6-0.8-0.8-1.3
		s-0.3-1-0.3-1.6C7.1,663.8,7.3,663,7.7,662.3z M10.1,666.8c0.2,0.3,0.4,0.5,0.8,0.7h1.4c0.3-0.2,0.6-0.4,0.8-0.7s0.3-0.7,0.3-1.1
		c0-0.6-0.2-1-0.5-1.3c-0.3-0.3-0.8-0.5-1.3-0.5s-1,0.2-1.3,0.5s-0.5,0.8-0.5,1.3C9.8,666.1,9.9,666.5,10.1,666.8z"/>
	<path class="st0" d="M7.7,680.3c0.4-0.8,0.9-1.4,1.6-1.9c0.7-0.4,1.5-0.7,2.3-0.7c0.9,0,1.6,0.2,2.3,0.7s1.2,1.1,1.6,1.9
		c0.4,0.8,0.6,1.8,0.6,2.9c0,1.1-0.2,2-0.6,2.9s-0.9,1.4-1.6,1.9s-1.5,0.7-2.3,0.7c-0.9,0-1.7-0.2-2.3-0.7c-0.7-0.4-1.2-1.1-1.6-1.9
		c-0.4-0.8-0.6-1.8-0.6-2.9C7.1,682,7.3,681.1,7.7,680.3z M10.3,684.4c0.3,0.3,0.8,0.5,1.3,0.5c0.5,0,1-0.2,1.3-0.5
		c0.3-0.3,0.5-0.8,0.5-1.3c0-0.5-0.2-1-0.5-1.3s-0.7-0.5-1.3-0.5c-0.5,0-1,0.2-1.3,0.5s-0.5,0.7-0.5,1.3
		C9.8,683.7,10,684.1,10.3,684.4z"/>
	<path class="st0" d="M15.9,689.6v3.4h-0.8c0.3,0.3,0.6,0.8,0.8,1.3s0.3,1,0.3,1.6c0,0.9-0.2,1.7-0.6,2.4c-0.4,0.7-0.9,1.2-1.6,1.6
		c-0.7,0.4-1.5,0.6-2.4,0.6c-0.9,0-1.7-0.2-2.4-0.6S8,699,7.7,698.3s-0.6-1.5-0.6-2.4c0-0.5,0.1-1,0.2-1.5s0.4-0.9,0.6-1.2H3.5v-3.6
		H15.9z M10.3,696.2c0.3,0.3,0.8,0.5,1.3,0.5c0.6,0,1-0.2,1.3-0.5s0.5-0.8,0.5-1.3c0-0.4-0.1-0.8-0.3-1.1c-0.2-0.3-0.5-0.5-0.8-0.7
		h-1.4c-0.3,0.1-0.6,0.4-0.8,0.7s-0.3,0.7-0.3,1.1C9.8,695.5,10,695.9,10.3,696.2z"/>
	<path class="st0" d="M8.3,702.6c0.8-1,1.9-1.4,3.3-1.4c1.4,0,2.5,0.4,3.3,1.3c0.8,0.9,1.2,2.1,1.2,3.7c0,1-0.2,1.9-0.6,2.7
		c-0.4,0.7-0.9,1.3-1.6,1.7c-0.7,0.4-1.4,0.6-2.3,0.6h-1.1v-6.6c-0.8,0.3-1.1,1.1-1.1,2.6c0,0.6,0,1.2,0.1,1.8s0.2,1.1,0.4,1.5H7.7
		c-0.2-0.5-0.3-1-0.4-1.7c-0.1-0.7-0.2-1.4-0.2-2.1C7.1,704.8,7.5,703.5,8.3,702.6z M12.6,707.7c0.4-0.1,0.7-0.2,0.9-0.5
		c0.2-0.3,0.3-0.7,0.3-1.1c0-0.5-0.1-0.8-0.3-1.1c-0.2-0.3-0.5-0.4-0.9-0.5C12.6,704.5,12.6,707.7,12.6,707.7z"/>
	<path class="st0" d="M15.9,712.1v3.4h-0.8c0.4,0.4,0.6,0.8,0.8,1.3s0.3,1,0.3,1.6c0,1.2-0.3,2.1-0.9,2.7s-1.5,0.9-2.6,0.9H7.4v-3.6
		h4.8c0.4,0,0.7-0.1,0.9-0.3c0.2-0.2,0.3-0.5,0.3-0.8c0-0.7-0.3-1.2-1-1.6h-5v-3.5H15.9z"/>
	<path class="st0" d="M15.9,723.4v3.5H7.4v-3.5H15.9z M17.4,723.8c0.3-0.3,0.8-0.5,1.3-0.5c0.5,0,1,0.2,1.3,0.5s0.5,0.8,0.5,1.3
		c0,0.5-0.2,1-0.5,1.3c-0.4,0.4-0.8,0.5-1.3,0.5c-0.5,0-1-0.2-1.3-0.5c-0.4-0.4-0.5-0.8-0.5-1.3C16.8,724.6,17,724.2,17.4,723.8z"/>
	<path class="st0" d="M15.9,728.4v3.4h-0.8c0.4,0.4,0.6,0.8,0.8,1.3s0.3,1,0.3,1.6c0,1.2-0.3,2.1-0.9,2.7s-1.5,0.9-2.6,0.9H7.4v-3.6
		h4.8c0.4,0,0.7-0.1,0.9-0.3c0.2-0.2,0.3-0.5,0.3-0.8c0-0.7-0.3-1.2-1-1.6h-5v-3.5H15.9z"/>
	<path class="st0" d="M3.4,742.6c0.1-0.6,0.2-1.1,0.4-1.5h2.4c-0.4,0.9-0.6,2-0.6,3.2c0,0.8,0.2,1.3,0.5,1.7
		c0.3,0.4,0.8,0.5,1.4,0.5H8c-0.3-0.3-0.5-0.7-0.6-1.2c-0.2-0.5-0.2-1-0.2-1.5c0-0.9,0.2-1.7,0.6-2.4c0.4-0.7,0.9-1.2,1.6-1.6
		c0.7-0.4,1.5-0.6,2.4-0.6c0.9,0,1.7,0.2,2.4,0.6c0.7,0.4,1.2,0.9,1.6,1.6s0.6,1.5,0.6,2.4c0,0.6-0.1,1.1-0.3,1.6s-0.4,0.9-0.8,1.3
		h0.8v3.4H8c-1.5,0-2.7-0.5-3.5-1.4c-0.8-0.9-1.2-2.4-1.2-4.4C3.3,743.7,3.3,743.2,3.4,742.6z M10.1,745.8c0.2,0.3,0.5,0.5,0.8,0.7
		h1.4c0.3-0.2,0.6-0.4,0.8-0.7s0.3-0.7,0.3-1.1c0-0.6-0.1-1-0.5-1.3c-0.3-0.3-0.7-0.5-1.3-0.5c-0.6,0-1,0.2-1.3,0.5
		c-0.3,0.3-0.5,0.8-0.5,1.3C9.8,745.1,9.9,745.5,10.1,745.8z"/>
	<path class="st0" d="M15.9,757.6v1.7h-1.2c0.5,0.4,0.9,0.9,1.1,1.4c0.3,0.5,0.4,1,0.4,1.6c0,0.7-0.1,1.2-0.4,1.6
		c-0.2,0.4-0.6,0.7-1.1,0.9c0.5,0.4,0.8,0.8,1.1,1.4c0.2,0.5,0.3,1.1,0.3,1.7c0,1-0.3,1.8-0.8,2.2c-0.5,0.5-1.3,0.7-2.3,0.7H7.4V769
		h5.4c0.7,0,1.2-0.1,1.5-0.4c0.3-0.3,0.4-0.7,0.4-1.3c0-0.9-0.4-1.6-1.2-2.2c-0.2,0-0.5,0-0.9,0H7.4v-1.7h5.4c0.7,0,1.2-0.1,1.5-0.3
		c0.3-0.2,0.4-0.7,0.4-1.3c0-0.9-0.5-1.7-1.5-2.4H7.4v-1.8H15.9L15.9,757.6z"/>
	<path class="st0" d="M7.9,773.3c0.5-0.6,1.2-0.9,2.1-0.9c0.9,0,1.7,0.3,2.2,0.9c0.5,0.6,0.8,1.4,0.8,2.5c0,1.2-0.2,2.2-0.7,3h0.4
		c0.7,0,1.2-0.2,1.5-0.6c0.3-0.4,0.5-1,0.5-1.9c0-0.5-0.1-1-0.1-1.5c-0.1-0.5-0.2-0.9-0.4-1.3h1.5c0.2,0.4,0.3,0.8,0.4,1.4
		c0.1,0.6,0.2,1.1,0.2,1.7c0,1.4-0.3,2.4-0.9,3.1c-0.6,0.7-1.5,1-2.6,1H7.4v-1.7h1c-0.4-0.4-0.7-0.8-0.9-1.3
		c-0.2-0.5-0.3-1.1-0.3-1.8C7.1,774.8,7.3,773.9,7.9,773.3z M8.8,777.8c0.2,0.5,0.5,0.8,0.9,1h1.1c0.5-0.8,0.8-1.6,0.8-2.6
		c0-0.7-0.1-1.2-0.4-1.5c-0.3-0.3-0.7-0.5-1.2-0.5c-1,0-1.6,0.7-1.6,2C8.5,776.8,8.6,777.3,8.8,777.8z"/>
	<path class="st0" d="M4,782.2h1.4c-0.1,0.3-0.2,0.7-0.2,1.1c0,0.4,0.1,0.7,0.3,1s0.5,0.5,1,0.6l1,0.4l8.3-3.7v1.8l-6.6,2.8l6.6,2.6
		v1.9L6.4,787c-0.9-0.3-1.5-0.8-1.9-1.3c-0.4-0.5-0.6-1.1-0.6-1.9C3.8,783.2,3.9,782.7,4,782.2z"/>
	<path class="st0" d="M7.3,800.4c0.1-0.7,0.3-1.2,0.5-1.7h1.5c-0.5,1.1-0.8,2.3-0.8,3.5c0,1.1,0.2,1.9,0.6,2.4
		c0.4,0.5,1,0.8,1.7,0.8c0.8,0,1.3-0.3,1.6-0.8c0.3-0.5,0.5-1.4,0.5-2.5v-1.5h1.5v1.4c0,0.9,0.2,1.6,0.5,2.2
		c0.4,0.5,0.9,0.8,1.6,0.8c0.7,0,1.2-0.2,1.6-0.7c0.4-0.4,0.5-1.1,0.5-1.9c0-0.7-0.1-1.3-0.2-1.8c-0.1-0.5-0.4-1.1-0.8-1.6h1.5
		c0.6,1,0.9,2.3,0.9,3.7c0,1.4-0.3,2.4-0.9,3.2c-0.6,0.7-1.5,1.1-2.6,1.1c-0.7,0-1.2-0.2-1.7-0.5c-0.5-0.3-0.9-0.9-1.1-1.6
		c-0.2,0.8-0.5,1.4-1,1.8s-1.1,0.7-1.9,0.7c-1.1,0-2-0.4-2.7-1.2s-1-2-1-3.7C7.1,801.7,7.2,801,7.3,800.4z"/>
	<path class="st0" d="M17.8,811.5l-1.9-2.7h1.7l2.2,2.9v1.6H7.4v-1.8H17.8z"/>
	<path class="st0" d="M3.4,829.5c0.1-0.6,0.2-1.1,0.4-1.5h2.4c-0.4,0.9-0.6,2-0.6,3.2c0,0.8,0.2,1.3,0.5,1.7s0.8,0.5,1.4,0.5H8
		c-0.3-0.3-0.5-0.7-0.6-1.2c-0.2-0.5-0.2-1-0.2-1.5c0-0.9,0.2-1.7,0.6-2.4c0.4-0.7,0.9-1.2,1.6-1.6c0.7-0.4,1.5-0.6,2.4-0.6
		c0.9,0,1.7,0.2,2.4,0.6c0.7,0.4,1.2,0.9,1.6,1.6s0.6,1.5,0.6,2.4c0,0.6-0.1,1.1-0.3,1.6s-0.4,0.9-0.8,1.3h0.8v3.4H8
		c-1.5,0-2.7-0.5-3.5-1.4c-0.8-0.9-1.2-2.4-1.2-4.4C3.3,830.7,3.3,830.1,3.4,829.5z M10.1,832.8c0.2,0.3,0.5,0.6,0.8,0.7h1.4
		c0.3-0.1,0.6-0.4,0.8-0.7s0.3-0.7,0.3-1.1c0-0.6-0.1-1-0.5-1.3c-0.3-0.3-0.7-0.5-1.3-0.5c-0.6,0-1,0.2-1.3,0.5
		c-0.3,0.3-0.5,0.8-0.5,1.3C9.8,832.1,9.9,832.5,10.1,832.8z"/>
	<path class="st0" d="M15.9,838.5v3.4H15c0.3,0.3,0.6,0.8,0.8,1.4c0.2,0.6,0.3,1.2,0.3,1.9h-2.8c0-0.8-0.1-1.4-0.3-2
		c-0.2-0.6-0.5-1-0.9-1.2H7.4v-3.6L15.9,838.5L15.9,838.5z"/>
	<path class="st0" d="M7.8,845.7c0.5-0.7,1.2-1,2.2-1c1,0,1.7,0.3,2.2,1s0.8,1.6,0.8,2.8c0,0.4-0.1,0.9-0.1,1.3s-0.2,0.8-0.4,1.1
		h0.2c0.4,0,0.7-0.2,0.9-0.6s0.3-0.9,0.3-1.6c0-1-0.2-2-0.6-2.8h2.3c0.2,0.4,0.3,0.9,0.4,1.5s0.2,1.3,0.2,2c0,1.7-0.3,2.9-0.9,3.8
		c-0.6,0.9-1.5,1.3-2.7,1.3H7.4v-3.3H8c-0.3-0.3-0.5-0.7-0.7-1.2s-0.3-1.1-0.3-1.7C7.1,847.2,7.3,846.4,7.8,845.7z M9.3,850.3
		c0.1,0.3,0.3,0.5,0.5,0.6h0.7c0.3-0.4,0.4-0.9,0.4-1.5c0-0.3-0.1-0.6-0.2-0.8s-0.4-0.3-0.6-0.3c-0.3,0-0.5,0.1-0.6,0.3
		s-0.2,0.4-0.2,0.8C9.1,849.8,9.2,850,9.3,850.3z"/>
	<path class="st0" d="M15.9,855.8v3.4h-0.8c0.4,0.4,0.6,0.8,0.8,1.3s0.3,1,0.3,1.6c0,1.2-0.3,2.1-0.9,2.7s-1.5,0.9-2.6,0.9H7.4v-3.6
		h4.8c0.4,0,0.7-0.1,0.9-0.3c0.2-0.2,0.3-0.4,0.3-0.8c0-0.7-0.3-1.2-1-1.6h-5v-3.6L15.9,855.8L15.9,855.8z"/>
	<path class="st0" d="M7.7,868.8c0.4-0.7,0.9-1.2,1.6-1.6s1.5-0.6,2.4-0.6c0.9,0,1.7,0.2,2.4,0.6s1.2,0.9,1.6,1.6
		c0.4,0.7,0.6,1.5,0.6,2.4c0,0.5-0.1,1.1-0.2,1.5c-0.2,0.5-0.4,0.9-0.6,1.2h5.2v3.5H7.4V874h0.8c-0.3-0.3-0.6-0.8-0.8-1.3
		c-0.2-0.5-0.3-1-0.3-1.6C7.1,870.3,7.3,869.5,7.7,868.8z M10.1,873.2c0.2,0.3,0.4,0.5,0.8,0.7h1.4c0.3-0.1,0.6-0.4,0.8-0.7
		s0.3-0.7,0.3-1.1c0-0.6-0.2-1-0.5-1.3c-0.3-0.3-0.8-0.5-1.3-0.5s-1,0.2-1.3,0.5c-0.3,0.3-0.5,0.8-0.5,1.3
		C9.8,872.5,9.9,872.9,10.1,873.2z"/>
	<path class="st0" d="M7.7,886.7c0.4-0.8,0.9-1.4,1.6-1.9c0.7-0.4,1.5-0.7,2.3-0.7c0.9,0,1.6,0.2,2.3,0.7s1.2,1.1,1.6,1.9
		c0.4,0.8,0.6,1.8,0.6,2.9c0,1.1-0.2,2-0.6,2.9s-0.9,1.4-1.6,1.9s-1.5,0.7-2.3,0.7c-0.9,0-1.7-0.2-2.3-0.7c-0.7-0.4-1.2-1.1-1.6-1.9
		c-0.4-0.8-0.6-1.8-0.6-2.9C7.1,888.5,7.3,887.5,7.7,886.7z M10.3,890.9c0.3,0.3,0.8,0.5,1.3,0.5c0.5,0,1-0.2,1.3-0.5
		c0.3-0.3,0.5-0.8,0.5-1.3c0-0.5-0.2-1-0.5-1.3s-0.7-0.5-1.3-0.5c-0.5,0-1,0.2-1.3,0.5s-0.5,0.7-0.5,1.3
		C9.8,890.1,10,890.5,10.3,890.9z"/>
	<path class="st0" d="M15.9,896v3.4h-0.8c0.3,0.4,0.6,0.8,0.8,1.3s0.3,1,0.3,1.6c0,0.9-0.2,1.7-0.6,2.4c-0.4,0.7-0.9,1.2-1.6,1.6
		c-0.7,0.4-1.5,0.6-2.4,0.6c-0.9,0-1.7-0.2-2.4-0.6s-1.2-0.9-1.6-1.6s-0.6-1.5-0.6-2.4c0-0.5,0.1-1,0.2-1.5s0.4-0.9,0.6-1.2H3.5V896
		H15.9z M10.3,902.7c0.3,0.3,0.8,0.5,1.3,0.5c0.6,0,1-0.2,1.3-0.5c0.3-0.3,0.5-0.8,0.5-1.3c0-0.4-0.1-0.8-0.3-1.1
		c-0.2-0.3-0.5-0.5-0.8-0.7h-1.4c-0.3,0.1-0.6,0.4-0.8,0.7s-0.3,0.7-0.3,1.1C9.8,901.9,10,902.4,10.3,902.7z"/>
	<path class="st0" d="M8.3,909c0.8-1,1.9-1.4,3.3-1.4c1.4,0,2.5,0.4,3.3,1.3c0.8,0.9,1.2,2.1,1.2,3.7c0,1-0.2,1.9-0.6,2.7
		c-0.4,0.7-0.9,1.3-1.6,1.7c-0.7,0.4-1.4,0.6-2.3,0.6h-1.1V911c-0.8,0.3-1.1,1.1-1.1,2.6c0,0.6,0,1.1,0.1,1.8
		c0.1,0.6,0.2,1.1,0.4,1.5H7.7c-0.2-0.5-0.3-1-0.4-1.7c-0.1-0.7-0.2-1.4-0.2-2.1C7.1,911.3,7.5,910,8.3,909z M12.6,914.2
		c0.4-0.1,0.7-0.2,0.9-0.5c0.2-0.3,0.3-0.6,0.3-1.1c0-0.5-0.1-0.8-0.3-1.1c-0.2-0.3-0.5-0.4-0.9-0.5
		C12.6,910.9,12.6,914.2,12.6,914.2z"/>
	<path class="st0" d="M15.9,918.6v3.4h-0.8c0.4,0.4,0.6,0.8,0.8,1.3s0.3,1,0.3,1.6c0,1.2-0.3,2.1-0.9,2.7s-1.5,0.9-2.6,0.9H7.4v-3.6
		h4.8c0.4,0,0.7-0.1,0.9-0.3c0.2-0.2,0.3-0.5,0.3-0.8c0-0.7-0.3-1.3-1-1.6h-5v-3.5L15.9,918.6L15.9,918.6z"/>
	<path class="st0" d="M15.9,929.8v3.5H7.4v-3.5H15.9z M17.4,930.3c0.3-0.3,0.8-0.5,1.3-0.5c0.5,0,1,0.2,1.3,0.5
		c0.4,0.4,0.5,0.8,0.5,1.3c0,0.5-0.2,1-0.5,1.3c-0.4,0.4-0.8,0.5-1.3,0.5c-0.5,0-1-0.2-1.3-0.5c-0.4-0.4-0.5-0.8-0.5-1.3
		C16.8,931.1,17,930.6,17.4,930.3z"/>
	<path class="st0" d="M15.9,934.9v3.4h-0.8c0.4,0.4,0.6,0.8,0.8,1.3s0.3,1,0.3,1.6c0,1.2-0.3,2.1-0.9,2.7s-1.5,0.9-2.6,0.9H7.4v-3.6
		h4.8c0.4,0,0.7-0.1,0.9-0.3c0.2-0.2,0.3-0.5,0.3-0.8c0-0.7-0.3-1.2-1-1.6h-5v-3.5L15.9,934.9L15.9,934.9z"/>
	<path class="st0" d="M3.4,949c0.1-0.6,0.2-1.1,0.4-1.5h2.4c-0.4,0.9-0.6,2-0.6,3.2c0,0.8,0.2,1.3,0.5,1.7s0.8,0.5,1.4,0.5H8
		c-0.3-0.3-0.5-0.7-0.6-1.2c-0.2-0.5-0.2-1-0.2-1.5c0-0.9,0.2-1.7,0.6-2.4c0.4-0.7,0.9-1.2,1.6-1.6s1.5-0.6,2.4-0.6
		c0.9,0,1.7,0.2,2.4,0.6s1.2,0.9,1.6,1.6s0.6,1.5,0.6,2.4c0,0.6-0.1,1.1-0.3,1.6s-0.4,0.9-0.8,1.3h0.8v3.4H8c-1.5,0-2.7-0.5-3.5-1.4
		s-1.2-2.4-1.2-4.4C3.3,950.2,3.3,949.6,3.4,949z M10.1,952.3c0.2,0.3,0.5,0.5,0.8,0.7h1.4c0.3-0.2,0.6-0.4,0.8-0.7s0.3-0.7,0.3-1.1
		c0-0.6-0.1-1-0.5-1.3c-0.3-0.3-0.7-0.5-1.3-0.5c-0.6,0-1,0.2-1.3,0.5c-0.3,0.3-0.5,0.8-0.5,1.3C9.8,951.6,9.9,952,10.1,952.3z"/>
	<path class="st0" d="M15.9,964.1v1.7h-1.2c0.5,0.4,0.9,0.9,1.1,1.4c0.3,0.5,0.4,1,0.4,1.6c0,0.7-0.1,1.2-0.4,1.6
		c-0.2,0.4-0.6,0.7-1.1,0.9c0.5,0.4,0.8,0.8,1.1,1.4c0.2,0.5,0.3,1.1,0.3,1.7c0,1-0.3,1.8-0.8,2.2c-0.5,0.5-1.3,0.7-2.3,0.7H7.4
		v-1.7h5.4c0.7,0,1.2-0.1,1.5-0.4c0.3-0.3,0.4-0.7,0.4-1.3c0-0.9-0.4-1.6-1.2-2.2c-0.2,0-0.5,0-0.9,0H7.4v-1.7h5.4
		c0.7,0,1.2-0.1,1.5-0.4c0.3-0.2,0.4-0.7,0.4-1.3c0-0.9-0.5-1.7-1.5-2.4H7.4v-1.8L15.9,964.1L15.9,964.1z"/>
	<path class="st0" d="M7.9,979.8c0.5-0.6,1.2-0.9,2.1-0.9c0.9,0,1.7,0.3,2.2,0.9c0.5,0.6,0.8,1.5,0.8,2.5c0,1.2-0.2,2.2-0.7,3h0.4
		c0.7,0,1.2-0.2,1.5-0.6c0.3-0.4,0.5-1,0.5-1.9c0-0.5-0.1-1-0.1-1.5s-0.2-0.9-0.4-1.3h1.5c0.2,0.4,0.3,0.8,0.4,1.4
		c0.1,0.6,0.2,1.1,0.2,1.7c0,1.4-0.3,2.5-0.9,3.1s-1.5,1-2.6,1H7.4v-1.7h1c-0.4-0.4-0.7-0.8-0.9-1.3c-0.2-0.5-0.3-1.1-0.3-1.8
		C7.1,981.2,7.3,980.4,7.9,979.8z M8.8,984.2c0.2,0.5,0.5,0.8,0.9,1h1.1c0.5-0.8,0.8-1.6,0.8-2.6c0-0.7-0.1-1.2-0.4-1.5
		c-0.3-0.3-0.7-0.5-1.2-0.5c-1,0-1.6,0.7-1.6,2C8.5,983.2,8.6,983.8,8.8,984.2z"/>
	<path class="st0" d="M4,988.7h1.4c-0.1,0.3-0.2,0.7-0.2,1.1c0,0.4,0.1,0.7,0.3,1s0.5,0.5,1,0.6l1,0.4l8.3-3.7v1.9l-6.6,2.8l6.6,2.7
		v1.8l-9.5-3.8c-0.9-0.4-1.5-0.8-1.9-1.3s-0.6-1.1-0.6-1.9C3.8,989.7,3.9,989.1,4,988.7z"/>
	<path class="st0" d="M7.3,1006.8c0.1-0.7,0.3-1.2,0.5-1.7h1.5c-0.5,1.1-0.8,2.3-0.8,3.5c0,1.1,0.2,1.9,0.6,2.4s1,0.8,1.7,0.8
		c0.8,0,1.3-0.3,1.6-0.8c0.3-0.5,0.5-1.4,0.5-2.5v-1.5h1.5v1.4c0,0.9,0.2,1.6,0.5,2.2c0.4,0.5,0.9,0.8,1.6,0.8
		c0.7,0,1.2-0.2,1.6-0.7s0.5-1.1,0.5-2c0-0.7-0.1-1.3-0.2-1.8c-0.1-0.5-0.4-1.1-0.8-1.7h1.5c0.6,1,0.9,2.3,0.9,3.7
		c0,1.4-0.3,2.4-0.9,3.2c-0.6,0.7-1.5,1.1-2.6,1.1c-0.7,0-1.2-0.2-1.7-0.5c-0.5-0.3-0.9-0.9-1.1-1.6c-0.2,0.8-0.5,1.4-1,1.9
		c-0.5,0.4-1.1,0.6-1.9,0.6c-1.1,0-2-0.4-2.7-1.1c-0.7-0.8-1-2-1-3.7C7.1,1008.2,7.2,1007.5,7.3,1006.8z"/>
	<path class="st0" d="M17.8,1018l-1.9-2.7h1.7l2.2,2.9v1.6H7.4v-1.8H17.8z"/>
	<path class="st0" d="M3.4,1036c0.1-0.6,0.2-1.1,0.4-1.5h2.4c-0.4,0.9-0.6,2-0.6,3.2c0,0.8,0.2,1.3,0.5,1.7s0.8,0.5,1.4,0.5H8
		c-0.3-0.3-0.5-0.7-0.6-1.2c-0.2-0.5-0.2-1-0.2-1.5c0-0.9,0.2-1.7,0.6-2.4c0.4-0.7,0.9-1.2,1.6-1.6s1.5-0.6,2.4-0.6
		c0.9,0,1.7,0.2,2.4,0.6s1.2,0.9,1.6,1.6c0.4,0.7,0.6,1.5,0.6,2.4c0,0.6-0.1,1.1-0.3,1.6s-0.4,0.9-0.8,1.3h0.8v3.4H8
		c-1.5,0-2.7-0.5-3.5-1.4c-0.8-0.9-1.2-2.4-1.2-4.4C3.3,1037.2,3.3,1036.6,3.4,1036z M10.1,1039.2c0.2,0.3,0.5,0.6,0.8,0.7h1.4
		c0.3-0.2,0.6-0.4,0.8-0.7c0.2-0.3,0.3-0.7,0.3-1.1c0-0.6-0.1-1-0.5-1.3c-0.3-0.3-0.7-0.5-1.3-0.5c-0.6,0-1,0.2-1.3,0.5
		c-0.3,0.3-0.5,0.8-0.5,1.3C9.8,1038.6,9.9,1038.9,10.1,1039.2z"/>
	<path class="st0" d="M15.9,1044.9v3.4H15c0.3,0.3,0.6,0.8,0.8,1.4c0.2,0.6,0.3,1.2,0.3,1.9h-2.8c0-0.8-0.1-1.4-0.3-2
		c-0.2-0.6-0.5-1-0.9-1.2H7.4v-3.5L15.9,1044.9L15.9,1044.9z"/>
	<path class="st0" d="M7.8,1052.2c0.5-0.7,1.2-1,2.2-1c1,0,1.7,0.3,2.2,1s0.8,1.6,0.8,2.8c0,0.4-0.1,0.9-0.1,1.3
		c-0.1,0.4-0.2,0.8-0.4,1.1h0.2c0.4,0,0.7-0.2,0.9-0.6c0.2-0.4,0.3-0.9,0.3-1.6c0-1-0.2-2-0.6-2.8h2.3c0.2,0.4,0.3,0.9,0.4,1.5
		s0.2,1.3,0.2,2c0,1.6-0.3,2.9-0.9,3.8c-0.6,0.9-1.5,1.3-2.7,1.3H7.4v-3.4H8c-0.3-0.3-0.5-0.7-0.7-1.2s-0.3-1.1-0.3-1.7
		C7.1,1053.7,7.3,1052.8,7.8,1052.2z M9.3,1056.8c0.1,0.3,0.3,0.5,0.5,0.6h0.7c0.3-0.4,0.4-0.9,0.4-1.5c0-0.3-0.1-0.6-0.2-0.8
		c-0.1-0.2-0.4-0.3-0.6-0.3c-0.3,0-0.5,0.1-0.6,0.3c-0.1,0.2-0.2,0.4-0.2,0.8C9.1,1056.2,9.2,1056.5,9.3,1056.8z"/>
	<path class="st0" d="M15.9,1062.3v3.4h-0.8c0.4,0.4,0.6,0.8,0.8,1.3s0.3,1,0.3,1.6c0,1.2-0.3,2.1-0.9,2.7c-0.6,0.6-1.5,0.9-2.6,0.9
		H7.4v-3.6h4.8c0.4,0,0.7-0.1,0.9-0.3c0.2-0.2,0.3-0.4,0.3-0.8c0-0.7-0.3-1.2-1-1.6h-5v-3.6L15.9,1062.3L15.9,1062.3z"/>
	<path class="st0" d="M7.7,1075.3c0.4-0.7,0.9-1.2,1.6-1.6s1.5-0.6,2.4-0.6c0.9,0,1.7,0.2,2.4,0.6s1.2,0.9,1.6,1.6
		c0.4,0.7,0.6,1.5,0.6,2.4c0,0.5-0.1,1.1-0.2,1.5c-0.2,0.5-0.4,0.9-0.6,1.2h5.2v3.6H7.4v-3.4h0.8c-0.3-0.4-0.6-0.8-0.8-1.3
		s-0.3-1-0.3-1.6C7.1,1076.7,7.3,1075.9,7.7,1075.3z M10.1,1079.7c0.2,0.3,0.4,0.5,0.8,0.7h1.4c0.3-0.2,0.6-0.4,0.8-0.7
		c0.2-0.3,0.3-0.7,0.3-1.1c0-0.6-0.2-1-0.5-1.3c-0.3-0.3-0.8-0.5-1.3-0.5s-1,0.2-1.3,0.5c-0.3,0.3-0.5,0.8-0.5,1.3
		C9.8,1079,9.9,1079.3,10.1,1079.7z"/>
	<path class="st0" d="M7.7,1093.2c0.4-0.8,0.9-1.4,1.6-1.9c0.7-0.4,1.5-0.7,2.3-0.7c0.9,0,1.6,0.2,2.3,0.7c0.7,0.4,1.2,1.1,1.6,1.9
		c0.4,0.8,0.6,1.8,0.6,2.9c0,1.1-0.2,2-0.6,2.9c-0.4,0.8-0.9,1.4-1.6,1.9c-0.7,0.4-1.5,0.7-2.3,0.7c-0.9,0-1.7-0.2-2.3-0.7
		c-0.7-0.4-1.2-1.1-1.6-1.9c-0.4-0.8-0.6-1.8-0.6-2.9C7.1,1094.9,7.3,1094,7.7,1093.2z M10.3,1097.3c0.3,0.3,0.8,0.5,1.3,0.5
		c0.5,0,1-0.2,1.3-0.5c0.3-0.3,0.5-0.8,0.5-1.3c0-0.5-0.2-1-0.5-1.3c-0.3-0.3-0.7-0.5-1.3-0.5c-0.5,0-1,0.2-1.3,0.5
		c-0.3,0.3-0.5,0.7-0.5,1.3C9.8,1096.6,10,1097,10.3,1097.3z"/>
	<path class="st0" d="M15.9,1102.5v3.4h-0.8c0.3,0.4,0.6,0.8,0.8,1.3s0.3,1,0.3,1.6c0,0.9-0.2,1.7-0.6,2.4c-0.4,0.7-0.9,1.2-1.6,1.6
		s-1.5,0.6-2.4,0.6c-0.9,0-1.7-0.2-2.4-0.6s-1.2-0.9-1.6-1.6c-0.4-0.7-0.6-1.5-0.6-2.4c0-0.5,0.1-1,0.2-1.5s0.4-0.9,0.6-1.2H3.5
		v-3.5H15.9z M10.3,1109.2c0.3,0.3,0.8,0.5,1.3,0.5c0.6,0,1-0.2,1.3-0.5c0.3-0.3,0.5-0.8,0.5-1.3c0-0.4-0.1-0.8-0.3-1.1
		c-0.2-0.3-0.5-0.6-0.8-0.7h-1.4c-0.3,0.2-0.6,0.4-0.8,0.7c-0.2,0.3-0.3,0.7-0.3,1.1C9.8,1108.4,10,1108.8,10.3,1109.2z"/>
	<path class="st0" d="M8.3,1115.5c0.8-1,1.9-1.4,3.3-1.4c1.4,0,2.5,0.4,3.3,1.3c0.8,0.9,1.2,2.1,1.2,3.7c0,1-0.2,1.9-0.6,2.7
		c-0.4,0.7-0.9,1.3-1.6,1.7c-0.7,0.4-1.4,0.6-2.3,0.6h-1.1v-6.6c-0.8,0.3-1.1,1.1-1.1,2.6c0,0.6,0,1.2,0.1,1.8s0.2,1.1,0.4,1.5H7.7
		c-0.2-0.5-0.3-1-0.4-1.7c-0.1-0.7-0.2-1.4-0.2-2.1C7.1,1117.8,7.5,1116.4,8.3,1115.5z M12.6,1120.6c0.4-0.1,0.7-0.2,0.9-0.5
		s0.3-0.7,0.3-1.1s-0.1-0.8-0.3-1.1s-0.5-0.4-0.9-0.5C12.6,1117.4,12.6,1120.6,12.6,1120.6z"/>
	<path class="st0" d="M15.9,1125v3.4h-0.8c0.4,0.4,0.6,0.8,0.8,1.3s0.3,1,0.3,1.6c0,1.2-0.3,2.1-0.9,2.7c-0.6,0.6-1.5,0.9-2.6,0.9
		H7.4v-3.6h4.8c0.4,0,0.7-0.1,0.9-0.3c0.2-0.2,0.3-0.4,0.3-0.8c0-0.7-0.3-1.2-1-1.6h-5v-3.6L15.9,1125L15.9,1125z"/>
	<path class="st0" d="M15.9,1136.3v3.5H7.4v-3.5H15.9z M17.4,1136.7c0.3-0.3,0.8-0.5,1.3-0.5c0.5,0,1,0.2,1.3,0.5
		c0.4,0.4,0.5,0.8,0.5,1.3c0,0.5-0.2,1-0.5,1.3s-0.8,0.5-1.3,0.5c-0.5,0-1-0.2-1.3-0.5c-0.4-0.4-0.5-0.8-0.5-1.3
		C16.8,1137.5,17,1137.1,17.4,1136.7z"/>
	<path class="st0" d="M15.9,1141.3v3.4h-0.8c0.4,0.4,0.6,0.8,0.8,1.3s0.3,1,0.3,1.6c0,1.2-0.3,2.1-0.9,2.7c-0.6,0.6-1.5,0.9-2.6,0.9
		H7.4v-3.6h4.8c0.4,0,0.7-0.1,0.9-0.3c0.2-0.2,0.3-0.5,0.3-0.8c0-0.7-0.3-1.2-1-1.6h-5v-3.5H15.9z"/>
	<path class="st0" d="M3.4,1155.5c0.1-0.6,0.2-1.1,0.4-1.5h2.4c-0.4,0.9-0.6,2-0.6,3.2c0,0.8,0.2,1.3,0.5,1.7s0.8,0.5,1.4,0.5H8
		c-0.3-0.3-0.5-0.7-0.6-1.2c-0.2-0.5-0.2-1-0.2-1.5c0-0.9,0.2-1.7,0.6-2.4c0.4-0.7,0.9-1.2,1.6-1.6s1.5-0.6,2.4-0.6
		c0.9,0,1.7,0.2,2.4,0.6s1.2,0.9,1.6,1.6c0.4,0.7,0.6,1.5,0.6,2.4c0,0.6-0.1,1.1-0.3,1.6s-0.4,0.9-0.8,1.3h0.8v3.4H8
		c-1.5,0-2.7-0.5-3.5-1.4s-1.2-2.4-1.2-4.4C3.3,1156.6,3.3,1156.1,3.4,1155.5z M10.1,1158.7c0.2,0.3,0.5,0.6,0.8,0.7h1.4
		c0.3-0.2,0.6-0.4,0.8-0.7c0.2-0.3,0.3-0.7,0.3-1.1c0-0.6-0.1-1-0.5-1.3c-0.3-0.3-0.7-0.5-1.3-0.5c-0.6,0-1,0.2-1.3,0.5
		c-0.3,0.3-0.5,0.8-0.5,1.3C9.8,1158.1,9.9,1158.4,10.1,1158.7z"/>
	<path class="st0" d="M15.9,1170.5v1.7h-1.2c0.5,0.4,0.9,0.9,1.1,1.4c0.3,0.5,0.4,1,0.4,1.6c0,0.7-0.1,1.2-0.4,1.6s-0.6,0.7-1.1,0.9
		c0.5,0.4,0.8,0.8,1.1,1.4c0.2,0.5,0.3,1.1,0.3,1.7c0,1-0.3,1.8-0.8,2.2c-0.5,0.5-1.3,0.7-2.3,0.7H7.4v-1.7h5.4
		c0.7,0,1.2-0.1,1.5-0.4c0.3-0.3,0.4-0.7,0.4-1.3c0-0.9-0.4-1.6-1.2-2.2c-0.2,0-0.5,0-0.9,0H7.4v-1.7h5.4c0.7,0,1.2-0.1,1.5-0.4
		c0.3-0.2,0.4-0.7,0.4-1.3c0-0.9-0.5-1.7-1.5-2.4H7.4v-1.8L15.9,1170.5L15.9,1170.5z"/>
	<path class="st0" d="M7.9,1186.2c0.5-0.6,1.2-0.9,2.1-0.9c0.9,0,1.7,0.3,2.2,0.9c0.5,0.6,0.8,1.4,0.8,2.5c0,1.2-0.2,2.2-0.7,3h0.4
		c0.7,0,1.2-0.2,1.5-0.6c0.3-0.4,0.5-1,0.5-1.9c0-0.5-0.1-1-0.1-1.5s-0.2-0.9-0.4-1.3h1.5c0.2,0.3,0.3,0.8,0.4,1.4
		c0.1,0.6,0.2,1.1,0.2,1.7c0,1.4-0.3,2.5-0.9,3.1c-0.6,0.7-1.5,1-2.6,1H7.4v-1.7h1c-0.4-0.4-0.7-0.8-0.9-1.3
		c-0.2-0.5-0.3-1.1-0.3-1.8C7.1,1187.7,7.3,1186.8,7.9,1186.2z M8.8,1190.7c0.2,0.5,0.5,0.8,0.9,1h1.1c0.5-0.8,0.8-1.6,0.8-2.6
		c0-0.7-0.1-1.2-0.4-1.5c-0.3-0.3-0.7-0.5-1.2-0.5c-1,0-1.6,0.7-1.6,2C8.5,1189.7,8.6,1190.2,8.8,1190.7z"/>
	<path class="st0" d="M4,1195.2h1.4c-0.1,0.3-0.2,0.7-0.2,1.1c0,0.4,0.1,0.7,0.3,1s0.5,0.4,1,0.6l1,0.4l8.3-3.7v1.8l-6.6,2.8
		l6.6,2.7v1.8l-9.5-3.8c-0.9-0.4-1.5-0.8-1.9-1.3s-0.6-1.1-0.6-1.9C3.8,1196.1,3.9,1195.6,4,1195.2z"/>
	<path class="st0" d="M7.3,1213.3c0.1-0.7,0.3-1.2,0.5-1.7h1.5c-0.5,1.1-0.8,2.3-0.8,3.6c0,1.1,0.2,1.9,0.6,2.4
		c0.4,0.5,1,0.8,1.7,0.8c0.8,0,1.3-0.3,1.6-0.8c0.3-0.5,0.5-1.4,0.5-2.5v-1.5h1.5v1.4c0,0.9,0.2,1.6,0.5,2.2
		c0.4,0.5,0.9,0.8,1.6,0.8c0.7,0,1.2-0.2,1.6-0.7c0.4-0.4,0.5-1.1,0.5-1.9c0-0.7-0.1-1.3-0.2-1.8s-0.4-1.1-0.8-1.7h1.5
		c0.6,1,0.9,2.3,0.9,3.7c0,1.4-0.3,2.4-0.9,3.2c-0.6,0.7-1.5,1.1-2.6,1.1c-0.7,0-1.2-0.2-1.7-0.5s-0.9-0.9-1.1-1.6
		c-0.2,0.8-0.5,1.4-1,1.9c-0.5,0.4-1.1,0.7-1.9,0.7c-1.1,0-2-0.4-2.7-1.2s-1-2-1-3.7C7.1,1214.6,7.2,1213.9,7.3,1213.3z"/>
	<path class="st0" d="M17.8,1224.4l-1.9-2.7h1.7l2.2,2.9v1.6H7.4v-1.8H17.8z"/>
</g>
</svg>
