<svg xmlns="http://www.w3.org/2000/svg" viewBox="0 0 2726.9 2120">
  <path d="M1721 1301c77-141 131-197 192-198 103-2 142 40 190 137 8 15 26 40 52 26 13-6 11-22-7-59-60-119-115-246-234-246-92 0-169 83-250 270-83 172-147 248-197 231-66-22-86-206-111-420-22-200-48-426-115-460-39-21-71-24-98-9-82 43-105 239-124 396-7 58-24 167-24 167-24 129-55 265-120 259-52-6-86-23-111-97-29-88-87-129-174-120-17 3-26 18-27 29 0 4-2 34 35 38 64 0 82 40 108 132 23 80 51 180 174 180 143-12 170-252 194-464 10-91 19-176 37-238 12-42 38-113 75-110 36 3 50 40 57 66 16 58 40 188 52 297 24 207 48 422 164 425 126 7 195-113 261-229l1-3Z" style="fill:#000"/>
</svg>
