<?xml version="1.0" encoding="UTF-8"?>
<svg id="Lager_2" xmlns="http://www.w3.org/2000/svg" viewBox="0 0 1326.04 289.46">
    <defs>
        <style>
            .cls-1 {
                fill: #1a2118;
                stroke-width: 0px;
            }
        </style>
    </defs>
    <path id="skogsbrand_wave" class="cls-1"
        d="m1308.99,172.69c-39.18,6.75-33.16,66.58-62.66,64.95-32.38-1.79-38.61-101.73-88.42-101.73-24.65,0-40.89,18.43-50.61,34.98-10.97,19.3-21.2,33.13-30.68,32.2-14.33-1.41-26.73-28.55-35.79-58.12-12.38-42.2-31.96-64.03-51.04-63.99-19.45.04-38.4,22.77-51.49,65.31-55.77,166.83-80.01-123.69-148.55-129.18-49.16-3.94-47.93,225.18-79.09,230.98-30.72,5.72-61.17-118.23-108.24-116.98-27.71.93-34.66,23.82-39.39,43.13-5.17,25.12-14.94,28.63-20.41,29.7-27.81,5.45-28.36-205.42-77.51-203.12-49.88,2.33-50.8,184.27-89.33,198.38-12.91,4.73-28.47-10.38-37.92-24.73-20.8-31.57-23.71-46.91-52.84-47.99-21.68.79-38.28,21.34-54.1,57.96-17.81,36.73-30.44,50.08-38.83,47.27-25.81-8.63-17.82-169.54-47.22-184.4-46.92-24.59-45.24,72.15-53.92,115.33-3.41,18.26-9.88,56.16-23.36,54.8-9.88-1-16.48-3.89-21.64-18.93-7.95-24.3-25.28-27.77-38.47-26.54-4.72.85-7.39,4.99-7.44,8.04-.27,3.06.72,9.44,9.1,10.08,11.68,0,15.28,6.18,20.87,26.11,4.65,16.59,11.01,39.3,38.36,39.3,44.89-3.74,37.84-104.43,50.43-148.62,3.66-12.85,8.69-21.87,13.56-21.53,7.28.52,9.18,10.54,10.88,15.25,15.35,42.68,6.85,148.68,46.4,149.82,27.89,1.45,42.62-24.79,56.82-49.65,16.4-29.96,27.16-40.18,38.46-40.47,38.87-.76,45.98,74.85,89.73,77.84,56,2.35,55.57-185.9,89.31-188.3,30.27-2.15,24.79,182.18,75.65,183.29,47.54.25,32.64-81.95,62.8-83.8,14.72-.9,32.12,35.96,46.07,64.85,24.24,52.66,42.15,75.25,61.8,75.25,28.96,0,38.83-57.91,50.55-132.9,11.16-61.58,22.51-93.73,34.55-94.89,32.33-3.11,65.92,169.14,107.9,173.22,45.86,4.39,54.18-118.39,87.64-116.36,28.66,1.74,36.66,125.99,83.34,125.69,46.73.02,49.13-86.02,78.23-89.81,33.76-4.4,41,136.25,91.03,134.89,49.33-1.35,38.45-89.54,70.71-98.89,3.79-1.1,12.46-2.09,11.78-10.51-.25-3.91-4-9.63-17.02-7.21Z" />
</svg>