<?xml version="1.0" encoding="UTF-8"?>
<svg id="Lager_1" xmlns="http://www.w3.org/2000/svg" viewBox="0 0 46.5 37.5">
    <defs>
        <style>
            .cls-1 {
                fill: #ea652f;
                stroke-width: 0px;
            }
        </style>
    </defs>
    <g id="wc">
        <path class="cls-1"
            d="m25.9,23.48H5.1c-2.7,0-4.9-2.2-4.9-4.9V6.42C.2,3.72,2.4,1.52,5.1,1.52h20.8c2.7,0,4.9,2.2,4.9,4.9v12.16c0,2.7-2.2,4.9-4.9,4.9ZM5.11,2.42c-2.21,0-4.01,1.8-4.01,4.01v12.16c0,2.21,1.8,4.01,4.01,4.01h20.8c2.21,0,4.01-1.8,4.01-4.01V6.43c0-2.21-1.8-4.01-4.01-4.01H5.11Z" />
        <path class="cls-1"
            d="m17.66,7.7l-2.68,10.07h-1.28l-1.96-6.6c-.06-.2-.11-.4-.17-.61-.06-.21-.11-.4-.16-.59-.05-.19-.09-.35-.12-.49s-.05-.24-.06-.3c0,.07-.03.17-.05.3s-.06.3-.11.49-.1.39-.15.6c-.05.21-.11.43-.18.64l-1.9,6.56h-1.28l-2.67-10.07h1.33l1.57,6.15c.06.22.11.43.16.64s.09.42.13.62.08.4.11.59.06.37.08.55c.03-.19.06-.38.09-.58s.07-.4.12-.61c.05-.21.1-.43.16-.64.06-.22.11-.43.17-.63l1.78-6.08h1.31l1.85,6.12c.07.22.13.44.18.66s.11.44.16.64c.05.21.09.41.12.6s.06.37.09.53c.03-.23.07-.48.11-.74.05-.26.1-.53.17-.81.07-.28.14-.57.21-.86l1.55-6.14h1.33,0Z" />
        <path class="cls-1"
            d="m23.39,8.67c-.54,0-1.02.09-1.45.27-.43.18-.8.45-1.1.8s-.53.78-.69,1.28-.24,1.07-.24,1.7c0,.83.13,1.55.39,2.16s.64,1.08,1.16,1.41c.51.33,1.15.49,1.93.49.44,0,.86-.04,1.26-.11.39-.08.78-.17,1.16-.28v1.1c-.38.14-.76.24-1.16.31s-.88.1-1.43.1c-1.02,0-1.88-.21-2.57-.63s-1.2-1.03-1.54-1.81-.51-1.7-.51-2.75c0-.76.11-1.46.32-2.09s.52-1.18.93-1.64.91-.82,1.52-1.06,1.29-.37,2.07-.37c.52,0,1.02.05,1.5.16.48.1.91.25,1.28.44l-.51,1.07c-.31-.14-.66-.27-1.04-.38s-.8-.17-1.25-.17h-.03Z" />
    </g>
</svg>